<?xml version="1.0" encoding="UTF-8" standalone="no"?>
<!-- Created with Inkscape (http://www.inkscape.org/) -->

<svg xmlns:dc="http://purl.org/dc/elements/1.1/" xmlns:cc="http://creativecommons.org/ns#" xmlns:rdf="http://www.w3.org/1999/02/22-rdf-syntax-ns#" xmlns:svg="http://www.w3.org/2000/svg" xmlns="http://www.w3.org/2000/svg" xmlns:sodipodi="http://sodipodi.sourceforge.net/DTD/sodipodi-0.dtd" xmlns:inkscape="http://www.inkscape.org/namespaces/inkscape" width="1000" height="573" id="svg2" version="1.1" inkscape:version="0.48.5 r10040" sodipodi:docname="New document 1">
  <defs id="defs4">
	
	
	
	
	
	
	
	
	
</defs>
  <sodipodi:namedview id="base" pagecolor="#ffffff" bordercolor="#666666" borderopacity="1.0" inkscape:pageopacity="0.0" inkscape:pageshadow="2" inkscape:zoom="1.4" inkscape:cx="-41.610265" inkscape:cy="168.19722" inkscape:document-units="px" inkscape:current-layer="layer1" showgrid="false" fit-margin-top="0" fit-margin-left="0" fit-margin-right="0" fit-margin-bottom="0" inkscape:window-width="1366" inkscape:window-height="706" inkscape:window-x="-8" inkscape:window-y="-8" inkscape:window-maximized="1" />
  <metadata id="metadata7">
    <rdf:RDF>
      <cc:Work rdf:about="">
        <dc:format>image/svg+xml</dc:format>
        <dc:type rdf:resource="http://purl.org/dc/dcmitype/StillImage" />
        <dc:title></dc:title>
      </cc:Work>
    </rdf:RDF>
  </metadata>
  <g inkscape:label="Layer 1" inkscape:groupmode="layer" id="layer1" transform="translate(-507.48781,273.40456)">
    <path style="fill:white" inkscape:connector-curvature="0" d="m -331.30361,239.46732 c 0,77.241 -62.638,139.865 -139.912,139.865 -77.275,0 -139.914,-62.624 -139.914,-139.865 0,-77.241 62.639,-139.865004 139.914,-139.865004 77.274,0 139.912,62.625004 139.912,139.865004 z" id="path7487" />
    <g id="g7606" transform="matrix(2.3547876,0,0,2.3564619,530.2234,-406.38977)">
      <path id="path7489" d="m 155.0286,263.52099 c 7.65105,5.9223 17.25373,9.48077 27.67242,9.48077 11.40175,0 21.7956,-4.23288 29.72822,-11.18146 0.0964,-0.0851 0.0487,-0.14128 -0.0462,-0.0851 -3.55945,2.37736 -13.70526,7.56687 -29.68178,7.56687 -13.88427,0 -22.6587,-3.0979 -27.61373,-5.86359 -0.0948,-0.0471 -0.13029,0.0242 -0.059,0.0826 m 30.73548,2.30577 c 11.10502,0 23.30826,-3.02727 30.60648,-9.01954 1.9971,-1.63297 3.8997,-3.80585 5.60363,-6.72604 0.98081,-1.68039 1.94034,-3.67652 2.7215,-5.63879 0.0345,-0.0958 -0.0246,-0.14224 -0.0968,-0.0345 -6.78666,9.98779 -26.44067,16.21745 -46.73361,16.21745 -14.34451,0 -29.77854,-4.58734 -35.82113,-13.34564 -0.06,-0.081 -0.11902,-0.0465 -0.0829,0.0468 5.62879,11.96424 22.70642,18.50031 43.80278,18.50031 m -12.13325,-19.84818 c -23.09605,0 -33.98659,-10.75701 -35.96209,-18.0978 -0.0242,-0.10643 -0.0942,-0.0829 -0.0942,0.0125 0,2.47122 0.24738,5.6604 0.67312,7.77716 0.20287,1.03016 1.04145,2.64732 2.27094,3.93615 5.59266,5.82941 19.53563,13.99781 43.68312,13.99781 32.89998,0 40.42235,-10.95925 41.95856,-14.56319 1.09821,-2.57734 1.66748,-7.23532 1.66748,-11.14793 0,-0.94695 -0.0236,-1.70296 -0.0597,-2.44575 0,-0.12062 -0.07,-0.1303 -0.0938,-0.0129 -1.64393,8.81894 -29.75306,20.54386 -54.04342,20.54386 M 141.9251,208.54195 c -1.32367,2.62636 -2.79053,7.05727 -3.22659,9.35079 -0.19159,0.98243 -0.10999,1.45428 0.23512,2.18772 2.76795,5.87326 16.77027,15.27081 49.43222,15.27081 19.9259,0 35.40508,-4.89535 37.91307,-13.82846 0.46186,-1.64458 0.48637,-3.38076 -0.10676,-5.7204 -0.6628,-2.61442 -1.90422,-5.66297 -2.9547,-7.80392 -0.0345,-0.0697 -0.0958,-0.0594 -0.0835,0.0233 0.39026,11.71686 -32.28428,19.26825 -48.77072,19.26825 -17.8575,0 -32.75581,-7.11501 -32.75581,-16.09876 0,-0.86309 0.17869,-1.72682 0.40155,-2.62507 0.0223,-0.0826 -0.0481,-0.0964 -0.0838,-0.0242 m 70.57695,-14.3858 c 0.18997,0.29705 0.28447,0.61409 0.28447,1.04113 0,5.01211 -15.33952,13.87845 -39.75761,13.87845 -17.94169,0 -21.30084,-6.65572 -21.30084,-10.8886 0,-1.51299 0.58023,-3.06114 1.85842,-4.63347 0.07,-0.0935 0.0106,-0.12933 -0.07,-0.06 -2.33093,1.97518 -4.47252,4.19773 -6.35094,6.59703 -0.8976,1.13466 -1.45493,2.13966 -1.45493,2.74215 0,8.77152 21.9946,15.13181 42.5604,15.13181 21.913,0 31.69339,-7.15339 31.69339,-13.44014 0,-2.24674 -0.8747,-3.55815 -3.11177,-6.1013 -1.45234,-1.65394 -2.826,-3.00114 -4.28028,-4.32674 -0.0703,-0.0584 -0.11902,-0.0112 -0.0703,0.0597 m -6.71797,-5.01115 c -6.76314,-4.05355 -14.61609,-6.35997 -23.08282,-6.35997 -8.52576,0 -16.61577,2.38673 -23.40309,6.54769 -2.03613,1.25302 -3.18176,2.25706 -3.18176,3.54783 0,3.80488 8.89215,7.89553 24.66773,7.89553 15.61173,0 27.72047,-4.48092 27.72047,-8.79443 3.3e-4,-1.02887 -0.89921,-1.74908 -2.72053,-2.83665" inkscape:connector-curvature="0" style="fill:#00a8e0" />
      <g transform="matrix(0.64011148,0,0,0.63311132,-225.52372,-7.2459637)" id="g7534">
        <path inkscape:connector-curvature="0" d="M 361.444,123.1 H 379.7 c 8.341,0 13.9,2.616 18.086,7.657 4.512,5.584 5.206,13.396 5.206,32.176 0,18.764 -0.694,27.633 -5.206,33.201 -4.186,5.036 -9.745,7.656 -18.086,7.656 H 361.444 V 123.1 z m -24.171,-21.535 v 123.793 h 44.691 c 12.852,0 24.504,-3.663 32.683,-11.853 13.896,-13.89 12.517,-31.97 12.517,-50.572 0,-18.593 1.379,-35.652 -12.517,-49.551 -8.179,-8.174 -19.831,-11.817 -32.683,-11.817 h -44.691 z" id="path7491" />
        <path id="rect7493" d="m 449.51401,101.62 24.142,0 0,123.738 -24.142,0 z" inkscape:connector-curvature="0" />
        <path inkscape:connector-curvature="0" d="m 522.171,123.161 h 22.758 c 10.604,0 17.563,6.787 17.563,16.334 0,9.553 -6.958,16.344 -17.563,16.344 H 522.171 V 123.161 z M 498.03,101.62 v 123.738 h 24.142 v -49.371 h 17.386 l 24.146,49.371 h 27.971 l -27.622,-53.364 c 11.986,-4.337 22.581,-15.107 22.581,-32.498 0,-20.676 -14.931,-37.875 -40.113,-37.875 H 498.03 z" id="path7495" />
        <path id="polygon7497" d="m 688.738,203.79 -57.337,0 0,-30.057 48.836,0 0,-21.54 -48.836,0 0,-29.032 57.337,0 0,-21.541 -81.48,0 0,123.738 81.48,0 z" inkscape:connector-curvature="0" />
        <path inkscape:connector-curvature="0" d="m 714.439,114.156 c -5.397,5.362 -8.691,11.454 -10.081,18.572 -1.389,6.942 -2.082,17.185 -2.082,30.752 0,13.563 0.693,23.805 2.082,30.762 1.39,6.942 4.684,13.2 10.081,18.594 9.03,9.035 20.152,13.547 33.353,13.547 23.64,0 41.367,-13.899 45.542,-39.098 H 768.81 c -2.606,10.6 -9.186,17.547 -20.837,17.547 -6.6,0 -11.822,-2.093 -15.469,-6.419 -5.021,-5.393 -6.072,-10.941 -6.072,-34.933 0,-23.985 1.052,-29.534 6.072,-34.927 3.646,-4.356 8.869,-6.429 15.469,-6.429 11.651,0 18.23,6.952 20.837,17.546 h 24.523 c -4.175,-25.188 -21.732,-39.087 -45.542,-39.087 -13.2,0.001 -24.322,4.508 -33.352,13.573" id="path7499" />
        <path id="polygon7501" d="m 832.245,225.358 24.147,0 0,-102.197 32.321,0 0,-21.541 -88.795,0 0,21.541 32.327,0 z" inkscape:connector-curvature="0" />
        <path id="polygon7503" d="m 900.621,101.62 40.823,123.738 18.08,0 40.999,-123.738 -25.183,0 -24.861,80.62 -24.861,-80.62 z" inkscape:connector-curvature="0" />
      </g>
      <g style="fill:black" transform="matrix(1.9907197,0,0,2.0993793,-375.33019,79.332565)" id="g7585">
        <g id="text7587" style="font-size:90px;font-style:normal;font-weight:normal;text-align:start;text-anchor:start;fill:black;font-family:TeXGyreAdventor">
          <path inkscape:connector-curvature="0" id="path7599" style="font-size:90px;font-style:normal;font-weight:normal;text-align:start;text-anchor:start;fill:black;font-family:TeXGyreAdventor" d="m 236.60924,104.25846 0,-66.509143 -6.65992,0 0,55.16929 -37.25952,-55.16929 -8.99988,0 0,66.509143 6.65991,0 0,-58.499246 39.59949,58.499246 z" />
          <path inkscape:connector-curvature="0" id="path7601" style="font-size:90px;font-style:normal;font-weight:normal;text-align:start;text-anchor:start;fill:black;font-family:TeXGyreAdventor" d="m 316.10551,71.048222 c -0.26544,-9.599748 -3.79574,-17.598024 -10.59096,-23.994856 -6.79535,-6.396716 -15.26351,-9.717939 -25.40445,-9.963679 -10.06415,0.260519 -18.52459,3.574353 -25.3814,9.941517 -6.85683,6.367276 -10.4256,14.225166 -10.70633,23.573694 0.2519,9.769752 3.76297,17.871471 10.53328,24.305177 6.77026,6.433735 15.28839,9.769715 25.55445,10.008015 10.14094,-0.25306 18.6091,-3.58168 25.40445,-9.985847 6.79522,-6.404155 10.32552,-14.365487 10.59096,-23.884021 z m -6.9222,0.08867 c -0.21927,7.789578 -3.08043,14.310112 -8.58352,19.561622 -5.50322,5.251536 -12.33309,7.981665 -20.48969,8.190393 -8.24131,-0.201339 -15.10967,-2.946241 -20.60508,-8.234722 -5.49546,-5.288455 -8.34895,-11.912431 -8.56046,-19.87195 0.22881,-7.708237 3.1169,-14.19183 8.66429,-19.450795 5.54735,-5.258862 12.38109,-7.996375 20.50125,-8.212554 8.1566,0.208793 14.98647,2.961086 20.48969,8.256889 5.50309,5.295909 8.36425,11.88294 8.58352,19.761117 z" />
          <path sodipodi:nodetypes="cccccccccccccc" inkscape:connector-curvature="0" id="path7603" style="font-size:90px;font-style:normal;font-weight:normal;text-align:start;text-anchor:start;fill:black;font-family:TeXGyreAdventor" d="m 397.01315,37.467233 -8.05749,0 -13.7582,56.43061 -15.63854,-50.646587 -6.32664,0 -15.10034,50.646587 -13.89275,-56.43061 -7.99021,0 17.63507,66.791227 8.29597,0 14.32449,-49.23719 14.5687,49.23719 9.53759,0 z" />
        </g>
        <g id="text7589" style="font-size:90px;font-style:normal;font-weight:normal;text-align:start;text-anchor:start;fill:black;font-family:TeXGyreAdventor" />
      </g>
    </g>
  </g>
</svg>
