<svg width="59" height="20" viewBox="0 0 59 20" xmlns="http://www.w3.org/2000/svg"><title>D04A5F71-E9D0-47D7-8B74-E8CFBE9E3017</title><path d="M35.89 19.809h4.654V0H35.89v19.809zm-8.2-5.636c0 .708-.558 1.28-1.247 1.28h-2.709c-.688 0-1.246-.572-1.246-1.28V6.18h-4.654v8.391c0 3.43 2.138 5.237 5.3 5.237h4.556v-.025c2.91 0 4.654-2.125 4.654-5.212V6.181H27.69v7.992zM53.94 6.18v7.992c0 .708-.557 1.28-1.246 1.28h-2.708c-.69 0-1.246-.572-1.246-1.28V6.18h-4.655v8.391c0 3.43 2.139 5.237 5.3 5.237h4.556v-.025c2.91 0 4.653-2.125 4.653-5.212V6.181H53.94zm-44.73 0H6.225c-1.046 0-1.573.29-1.573.29V.001H0v19.808h4.652v-7.994c0-.707.56-1.28 1.247-1.28h2.708c.69 0 1.247.573 1.247 1.28v7.994h4.654v-8.613c0-3.62-2.353-5.015-5.298-5.015z" fill="#49CB74" fill-rule="evenodd"/></svg>