<?xml version="1.0" encoding="utf-8"?>
<!-- Generator: Adobe Illustrator 19.1.0, SVG Export Plug-In . SVG Version: 6.00 Build 0)  -->
<svg version="1.1" id="Layer_1" xmlns="http://www.w3.org/2000/svg" xmlns:xlink="http://www.w3.org/1999/xlink" x="0px" y="0px"
	 viewBox="0 0 317.8 85" style="enable-background:new 0 0 317.8 85;" xml:space="preserve">
<style type="text/css">
	.st0{fill:#E62117;}
	.st1{fill:#292929;}
	.st2{fill:#FFFFFF;}
</style>
<g>
	<g>
		<path id="lozenge_2_" class="st0" d="M202.6,18.3c0,0-1.2-8.3-4.8-12c-4.6-4.8-9.8-4.8-12.2-5.1C168.6,0,143.1,0,143.1,0H143
			c0,0-25.5,0-42.5,1.2C98.2,1.5,93,1.5,88.4,6.3c-3.6,3.7-4.8,12-4.8,12s-1.2,9.8-1.2,19.6v9.2c0,9.8,1.2,19.6,1.2,19.6
			s1.2,8.3,4.8,12c4.6,4.8,10.7,4.7,13.4,5.2c9.7,0.9,41.3,1.2,41.3,1.2s25.5,0,42.5-1.3c2.4-0.3,7.6-0.3,12.2-5.1
			c3.6-3.7,4.8-12,4.8-12s1.2-9.8,1.2-19.6v-9.2C203.8,28.1,202.6,18.3,202.6,18.3z"/>
		<path id="u_2_" class="st1" d="M76.1,68.8h-7.7v-4.5c-2.9,3.4-5.4,5.1-8.1,5.1c-2.4,0-4-1.1-4.9-3.1c-0.5-1.2-0.9-3.2-0.9-6V27.7
			h7.7v30.5c0,1.7,0,2.4,0,2.8c0.2,1.1,0.7,1.6,1.6,1.6c1.5,0,2.8-1.3,4.5-3.6V27.7h7.7V68.8z"/>
		<path id="o_2_" class="st1" d="M48.8,41.2c0-4.4-0.9-7.7-2.4-9.8c-2.1-2.8-5.3-4-8.5-4c-3.7,0-6.5,1.2-8.5,4
			c-1.6,2.1-2.4,5.4-2.4,9.8l0,14.6c0,4.4,0.8,7.4,2.3,9.4c2.1,2.8,5.4,4.3,8.6,4.3c3.3,0,6.6-1.5,8.7-4.3c1.6-2.1,2.3-5.1,2.3-9.4
			V41.2z M41.1,56.6c0.4,4.1-0.9,6.1-3.3,6.1c-2.4,0-3.7-2-3.3-6.1V40.3c-0.4-4.1,0.9-6,3.3-6c2.4,0,3.7,1.9,3.3,6L41.1,56.6z"/>
		<path id="y_2_" class="st1" d="M18.3,46.4v22.4h-8.1V46.4c0,0-8.4-27.4-10.2-32.5h8.5l5.7,21.4l5.7-21.4h8.5L18.3,46.4z"/>
		<g>
			<path id="e_1_" class="st2" d="M193.6,49.7l0-8.3c0-4.3-0.9-7.5-2.4-9.6c-2.1-2.8-5-4.3-8.7-4.3c-3.8,0-6.7,1.5-8.8,4.3
				c-1.6,2.1-2.5,5.4-2.5,9.8v14.2c0,4.3,1,7.3,2.6,9.4c2.1,2.8,5.1,4.2,8.9,4.2c3.8,0,6.9-1.5,8.9-4.4c0.9-1.3,1.5-2.8,1.7-4.4
				c0.1-0.7,0.3-2.4,0.3-4.8v-1.2h-7.7c0,3,0,4.7-0.1,5.1c-0.4,2-1.5,3-3.3,3c-2.5,0-3.6-1.9-3.6-5.6v-7.3H193.6z M179,39.1
				c0-3.8,1-4.8,3.5-4.8c2.4,0,3.4,1.1,3.4,4.9v4.4l-6.9,0V39.1z"/>
			<path id="b_1_" class="st2" d="M159.5,27.5c-2.7,0-5.4,1.7-7.8,4.6l0-17.8h-7.3v54.5h7.3l0-4.1c2.5,3,5.1,4.6,7.8,4.6
				c2.9,0,5.1-1.6,6.1-4.6c0.5-1.7,0.8-4.4,0.8-8.1V40.3c0-3.8-0.5-6.5-1-8.1C164.4,29.2,162.4,27.5,159.5,27.5z M158.6,57
				c0,4.1-1,5.6-3.1,5.6c-1.2,0-2.6-0.6-3.8-1.9l0-24.7c1.2-1.2,2.6-1.9,3.8-1.9c2.1,0,3.1,1.2,3.1,5.3V57z"/>
			<path id="u_1_" class="st2" d="M138.3,68.8h-7.7v-4.5c-2.9,3.4-5.4,5.1-8.1,5.1c-2.4,0-4-1.1-4.9-3.1c-0.5-1.2-0.9-3.2-0.9-6
				V28.1h7.7v30.1c0,1.7,0,2.4,0,2.8c0.2,1.1,0.7,1.6,1.6,1.6c1.5,0,2.8-1.3,4.5-3.6V28.1h7.7V68.8z"/>
			<polygon id="T" class="st2" points="109,68.8 100.9,68.8 100.9,22 92.3,22 92.3,14.3 118,14.3 118,22 109,22 			"/>
		</g>
	</g>
	<g>
		<path class="st1" d="M225.3,13.9v9h14.8v45.9h10.5V23H264l2.6-9H225.3z M306.5,13.9l-12.7,38.7L281,13.9h-11.2l19,54.9h9.9
			l19-54.9H306.5z"/>
	</g>
</g>
</svg>
