<?xml version="1.0" encoding="utf-8"?>
<!-- Generator: Adobe Illustrator 21.0.2, SVG Export Plug-In . SVG Version: 6.00 Build 0)  -->
<svg version="1.1" id="Layer_1" xmlns="http://www.w3.org/2000/svg" xmlns:xlink="http://www.w3.org/1999/xlink" x="0px" y="0px"
	 viewBox="0 0 160 77" style="enable-background:new 0 0 160 77;" xml:space="preserve">
<style type="text/css">
	.st0{clip-path:url(#SVGID_2_);}
	.st1{clip-path:url(#SVGID_4_);fill:#231F20;}
	.st2{clip-path:url(#SVGID_6_);}
	.st3{clip-path:url(#SVGID_8_);fill:#231F20;}
	.st4{clip-path:url(#SVGID_10_);}
	.st5{clip-path:url(#SVGID_12_);fill:#231F20;}
	.st6{clip-path:url(#SVGID_14_);}
	.st7{clip-path:url(#SVGID_16_);fill:#231F20;}
	.st8{clip-path:url(#SVGID_18_);}
	.st9{clip-path:url(#SVGID_20_);fill:#231F20;}
	.st10{clip-path:url(#SVGID_22_);}
	.st11{clip-path:url(#SVGID_24_);fill:#231F20;}
	.st12{clip-path:url(#SVGID_26_);}
	.st13{clip-path:url(#SVGID_28_);fill:#B52145;}
	.st14{clip-path:url(#SVGID_30_);}
	.st15{clip-path:url(#SVGID_32_);fill:#231F20;}
</style>
<title>Chiller_tv_logo</title>
<g>
	<defs>
		<path id="SVGID_1_" d="M12.7,49.9c-1.2-0.4-2.1-1-2.8-1.7c-0.7-0.7-1.2-1.6-1.5-2.7c-0.3-1-0.5-2.6-0.5-4.8c0-2.2,0.2-4.4,0.5-5.3
			c0.3-1,0.8-1.9,1.5-2.7c0.7-0.7,1.6-1.3,2.8-1.7c1.1-0.4,2.6-0.6,4.3-0.6l1,0c6,0,8.6-6.3,8.6-6.3H15.9c-2.9,0-5.4,0.4-7.4,1.2
			c-2,0.8-3.6,2-4.9,3.5c-1.3,1.6-2.2,3.4-2.7,5.6C0.6,35.2,0,37.7,0,40c0,2.3,0.3,4.8,0.8,6.7c0.6,2.2,1.5,4.1,2.7,5.6
			c1.3,1.5,2.9,2.7,4.9,3.6c1.8,0.8,4.1,1.2,6.7,1.2h3.7l6.6-6.6l-8.1,0C15.6,50.5,13.8,50.3,12.7,49.9"/>
	</defs>
	<clipPath id="SVGID_2_">
		<use xlink:href="#SVGID_1_"  style="overflow:visible;"/>
	</clipPath>
	<g class="st0">
		<defs>
			<rect id="SVGID_3_" x="-2600.3" y="-1092" width="3293.3" height="1787.7"/>
		</defs>
		<clipPath id="SVGID_4_">
			<use xlink:href="#SVGID_3_"  style="overflow:visible;"/>
		</clipPath>
		<rect x="-11.9" y="12.1" class="st1" width="50.5" height="57"/>
	</g>
</g>
<g>
	<defs>
		<path id="SVGID_5_" d="M147.1,24c-2.3,0-3.9,0.4-5,0.8c-1.5,0.5-2.8,1.3-3.7,2.2c-1,0.9-1.7,2.1-2.1,3.4c-0.4,1.3-0.6,2.8-0.6,4.5
			l0,22.2h7.9l0-22.3c0-2.7,1.3-4.8,3.9-4.8h5.7l6.5-5.9C159.6,24,148.1,24,147.1,24"/>
	</defs>
	<clipPath id="SVGID_6_">
		<use xlink:href="#SVGID_5_"  style="overflow:visible;"/>
	</clipPath>
	<g class="st2">
		<defs>
			<rect id="SVGID_7_" x="-2600.3" y="-1092" width="3293.3" height="1787.7"/>
		</defs>
		<clipPath id="SVGID_8_">
			<use xlink:href="#SVGID_7_"  style="overflow:visible;"/>
		</clipPath>
		<rect x="123.8" y="12.1" class="st3" width="47.8" height="57"/>
	</g>
</g>
<g>
	<defs>
		<path id="SVGID_9_" d="M57.2,34c0-3.7-1.4-8.5-6.6-9.7c-5.9-1.5-10.8,0.9-13.1,1.3l0-23l-7.8,7.6l0,46.9h7.9l0-26.2
			c0.8-0.4,1.7-0.7,1.9-0.8c1.3-0.4,2.8-0.6,4.6-0.6c3.6,0,5.4,1.6,5.4,4.9V61c0,7,7.8,10.2,7.8,10.2V34z"/>
	</defs>
	<clipPath id="SVGID_10_">
		<use xlink:href="#SVGID_9_"  style="overflow:visible;"/>
	</clipPath>
	<g class="st4">
		<defs>
			<rect id="SVGID_11_" x="-2600.3" y="-1092" width="3293.3" height="1787.7"/>
		</defs>
		<clipPath id="SVGID_12_">
			<use xlink:href="#SVGID_11_"  style="overflow:visible;"/>
		</clipPath>
		<rect x="17.6" y="-9.3" class="st5" width="51.5" height="92.5"/>
	</g>
</g>
<g>
	<defs>
		<path id="SVGID_13_" d="M70,57.4c0,0-7.9-3.1-7.9-10.4l0-23H70L70,57.4z"/>
	</defs>
	<clipPath id="SVGID_14_">
		<use xlink:href="#SVGID_13_"  style="overflow:visible;"/>
	</clipPath>
	<g class="st6">
		<defs>
			<rect id="SVGID_15_" x="-2600.3" y="-1092" width="3293.3" height="1787.7"/>
		</defs>
		<clipPath id="SVGID_16_">
			<use xlink:href="#SVGID_15_"  style="overflow:visible;"/>
		</clipPath>
		<rect x="50.2" y="12" class="st7" width="31.8" height="57.3"/>
	</g>
</g>
<g>
	<defs>
		<path id="SVGID_17_" d="M83.4,57.4c0,0-7.9-3.1-7.9-10.4l0-29.8l7.9-7.8L83.4,57.4z"/>
	</defs>
	<clipPath id="SVGID_18_">
		<use xlink:href="#SVGID_17_"  style="overflow:visible;"/>
	</clipPath>
	<g class="st8">
		<defs>
			<rect id="SVGID_19_" x="-2600.3" y="-1092" width="3293.3" height="1787.7"/>
		</defs>
		<clipPath id="SVGID_20_">
			<use xlink:href="#SVGID_19_"  style="overflow:visible;"/>
		</clipPath>
		<rect x="63.6" y="-2.5" class="st9" width="31.8" height="71.9"/>
	</g>
</g>
<g>
	<defs>
		<path id="SVGID_21_" d="M96.6,57.4c0,0-7.9-3.1-7.9-10.4l0-29.8l7.9-7.8L96.6,57.4z"/>
	</defs>
	<clipPath id="SVGID_22_">
		<use xlink:href="#SVGID_21_"  style="overflow:visible;"/>
	</clipPath>
	<g class="st10">
		<defs>
			<rect id="SVGID_23_" x="-2600.3" y="-1092" width="3293.3" height="1787.7"/>
		</defs>
		<clipPath id="SVGID_24_">
			<use xlink:href="#SVGID_23_"  style="overflow:visible;"/>
		</clipPath>
		<rect x="76.8" y="-2.5" class="st11" width="31.8" height="71.9"/>
	</g>
</g>
<g>
	<defs>
		<polygon id="SVGID_25_" points="70,9.5 70,17.2 62.2,17.2 		"/>
	</defs>
	<clipPath id="SVGID_26_">
		<use xlink:href="#SVGID_25_"  style="overflow:visible;"/>
	</clipPath>
	<g class="st12">
		<defs>
			<rect id="SVGID_27_" x="-2600.3" y="-1092" width="3293.3" height="1787.7"/>
		</defs>
		<clipPath id="SVGID_28_">
			<use xlink:href="#SVGID_27_"  style="overflow:visible;"/>
		</clipPath>
		<rect x="50.2" y="-2.5" class="st13" width="31.8" height="31.7"/>
	</g>
</g>
<g>
	<defs>
		<path id="SVGID_29_" d="M130.8,33.7c-0.3-2-1-3.7-2-5.2c-1-1.5-2.5-2.7-4.3-3.5c-1.9-0.9-4.3-1.3-7.4-1.3c-2.9,0-5.3,0.4-7.3,1.2
			c-2,0.8-3.6,1.9-4.8,3.4c-1.2,1.5-2.1,3.2-2.7,5.3c-0.6,2.1-0.8,4.4-0.8,7c0,3,0.5,5.5,0.7,6.2c0.6,2.2,1.5,4.1,2.7,5.6
			c1.3,1.5,2.9,2.7,4.9,3.6c1.8,0.8,4.1,1.2,6.7,1.2h5.7l6.6-6.6l-10.1,0c-1.7,0-3.5-0.2-4.7-0.6c-1.2-0.4-2.1-1-2.8-1.7
			c-0.7-0.7-1.2-1.6-1.5-2.7c-0.1-0.4-0.2-0.8-0.3-1.2c0-0.3-0.1-0.7-0.1-1.1h21.8c0-0.5,0.1-1,0.1-1.5c0-0.5,0-1.1,0-1.6
			C131.3,37.8,131.2,35.7,130.8,33.7z M109.4,38.2c0-1.2,0.2-2.3,0.5-3.3c0.3-1,0.7-1.9,1.3-2.6c0.6-0.7,1.3-1.3,2.3-1.7
			c0.9-0.4,2.1-0.6,3.6-0.6c1.5,0,2.7,0.2,3.6,0.7c0.8,0.5,1.5,1.1,1.9,1.8c0.4,0.8,0.7,1.6,0.8,2.6c0.1,1,0.1,2.1,0.1,3.1H109.4z"
			/>
	</defs>
	<clipPath id="SVGID_30_">
		<use xlink:href="#SVGID_29_"  style="overflow:visible;"/>
	</clipPath>
	<g class="st14">
		<defs>
			<rect id="SVGID_31_" x="-2600.3" y="-1092" width="3293.3" height="1787.7"/>
		</defs>
		<clipPath id="SVGID_32_">
			<use xlink:href="#SVGID_31_"  style="overflow:visible;"/>
		</clipPath>
		<rect x="89.5" y="11.7" class="st15" width="53.8" height="57.4"/>
	</g>
</g>
</svg>
