<?xml version="1.0" encoding="utf-8"?>
<!-- Generator: Adobe Illustrator 21.0.2, SVG Export Plug-In . SVG Version: 6.00 Build 0)  -->
<svg version="1.1" id="Layer_1" xmlns="http://www.w3.org/2000/svg" xmlns:xlink="http://www.w3.org/1999/xlink" x="0px" y="0px"
	 viewBox="0 0 78 35" style="enable-background:new 0 0 78 35;" xml:space="preserve">
<style type="text/css">
	.st0{clip-path:url(#SVGID_2_);}
	.st1{clip-path:url(#SVGID_4_);fill:#009BDE;}
	.st2{clip-path:url(#SVGID_6_);}
	.st3{clip-path:url(#SVGID_8_);fill:#009BDE;}
	.st4{clip-path:url(#SVGID_10_);}
	.st5{clip-path:url(#SVGID_12_);fill:#009BDE;}
	.st6{clip-path:url(#SVGID_14_);}
	.st7{clip-path:url(#SVGID_16_);fill:#009BDE;}
	.st8{clip-path:url(#SVGID_18_);}
	.st9{clip-path:url(#SVGID_20_);fill:#009BDE;}
	.st10{clip-path:url(#SVGID_22_);}
	.st11{clip-path:url(#SVGID_24_);fill:#009BDE;}
	.st12{clip-path:url(#SVGID_26_);}
	.st13{clip-path:url(#SVGID_28_);fill:#009BDE;}
	.st14{clip-path:url(#SVGID_30_);}
	.st15{clip-path:url(#SVGID_32_);fill:#009BDE;}
	.st16{clip-path:url(#SVGID_34_);}
	.st17{clip-path:url(#SVGID_36_);fill:#009BDE;}
	.st18{clip-path:url(#SVGID_38_);}
	.st19{clip-path:url(#SVGID_40_);fill:#009BDE;}
	.st20{clip-path:url(#SVGID_42_);}
	.st21{clip-path:url(#SVGID_44_);fill:#009BDE;}
	.st22{clip-path:url(#SVGID_46_);}
	.st23{clip-path:url(#SVGID_48_);fill:#009BDE;}
	.st24{clip-path:url(#SVGID_50_);}
	.st25{clip-path:url(#SVGID_52_);fill:#009BDE;}
	.st26{clip-path:url(#SVGID_54_);}
	.st27{clip-path:url(#SVGID_56_);fill:#009BDE;}
</style>
<title>disney</title>
<g>
	<defs>
		<path id="SVGID_1_" d="M78,17.1c0,3-3.7,6.7-7.4,6.4c-0.3,1.3-1.3,4.5-1.8,6.2c-0.4,1.2-0.5,3-0.8,3c-0.8,0.2-2.2-1.1-2.2-2.5
			c0-2.6,1.4-6.9,2-8.9c-0.4-0.7-0.6-1.5-0.6-2.2c0-2.9,2.7-6,3.5-6.7c0.4-0.3,0.8,0.6,0.5,1.4c-0.3,0.7-2.1,3.5-2.1,4.5
			c0,0.2,0.1,0.4,0.2,0.7c1.8-2.2,4.8-5.5,6.4-5.6C76.2,13.4,78,14.1,78,17.1 M71.8,20.8c1.9,0,4.7-1.8,4.7-4c0-0.7-0.2-1.2-0.7-1.2
			C75.1,15.6,73.2,18.6,71.8,20.8"/>
	</defs>
	<clipPath id="SVGID_2_">
		<use xlink:href="#SVGID_1_"  style="overflow:visible;"/>
	</clipPath>
	<g class="st0">
		<defs>
			<rect id="SVGID_3_" x="-535.9" y="-297.2" width="1680.1" height="912"/>
		</defs>
		<clipPath id="SVGID_4_">
			<use xlink:href="#SVGID_3_"  style="overflow:visible;"/>
		</clipPath>
		<rect x="59.6" y="6.4" class="st1" width="24.5" height="32.5"/>
	</g>
</g>
<g>
	<defs>
		<path id="SVGID_5_" d="M65.1,12.8c1.6-0.2,2.8,1.3,2.7,1.6c-0.1,0.4-0.4,0.6-0.8,0.7c-0.3,0.1-3.6,0.2-4.1,0.4
			c-0.3,0.1-0.4,1.1-0.3,1.3c0.1,0.2,2.3,0.2,2.7,0.2c0.7,0.1,0.9,1.6-0.2,1.6c-0.4,0-2.8,0-3.2,0.1c-0.4,0.1-0.8,1.9-0.6,2.1
			c0.2,0.2,3.3-0.5,3.9-0.5c0.6,0,1.3,0.6,1.3,1.1c0,0.3-2.6,2.3-5.5,2.4c-1.8,0.1-2.5-1.9-2.5-2.8c0-0.6,0.6-2,0.7-2.6
			c0.1-0.2-0.3-0.5-0.2-0.7c0.1-0.8,1.2-0.9,1.3-1.2c0.1-0.3,0.3-1.1,0.3-1.3c0-0.2-1.7-0.5-1.7-1.4C58.9,13.1,62.4,13.1,65.1,12.8"
			/>
	</defs>
	<clipPath id="SVGID_6_">
		<use xlink:href="#SVGID_5_"  style="overflow:visible;"/>
	</clipPath>
	<g class="st2">
		<defs>
			<rect id="SVGID_7_" x="-535.9" y="-297.2" width="1680.1" height="912"/>
		</defs>
		<clipPath id="SVGID_8_">
			<use xlink:href="#SVGID_7_"  style="overflow:visible;"/>
		</clipPath>
		<rect x="52.3" y="6.7" class="st3" width="21.6" height="23.3"/>
	</g>
</g>
<g>
	<defs>
		<path id="SVGID_9_" d="M63.2,29.5c0.3,0,0.5,0.3,0.5,0.6c0,0.3-0.3,0.5-0.6,0.5c-1.5-0.2-3,0.1-3.6,0.2c-0.7,0.1-1.3-0.2-1.3-1
			c0-0.2,0-2.7-0.1-3.9c0-0.3,0.2-0.5,0.5-0.5c0.3,0,0.5,0.2,0.5,0.5c0,0.1,0.1,3.3,0.1,3.9c0,0,0,0,0.1,0
			C60,29.6,61.6,29.3,63.2,29.5"/>
	</defs>
	<clipPath id="SVGID_10_">
		<use xlink:href="#SVGID_9_"  style="overflow:visible;"/>
	</clipPath>
	<g class="st4">
		<defs>
			<rect id="SVGID_11_" x="-535.9" y="-297.2" width="1680.1" height="912"/>
		</defs>
		<clipPath id="SVGID_12_">
			<use xlink:href="#SVGID_11_"  style="overflow:visible;"/>
		</clipPath>
		<rect x="52" y="19.2" class="st5" width="17.8" height="17.7"/>
	</g>
</g>
<g>
	<defs>
		<path id="SVGID_13_" d="M58.1,18.9c0,1.5-0.9,3.7-2.5,3.7c-1.5,0-4.1-5.3-4.5-5.3c-0.6,0,0.2,5.8-1.4,5.8c-1.1,0-1.3-1-1.3-2.4
			c0-1.4,0.7-7.2,2.1-7.1c1.3,0.1,4.6,5.9,5,5.8c0.2-0.1,0.3-0.6,0.3-0.9c0-1.5-1.5-5.3-1.6-6.4c0-0.4,0.1-0.7,0.4-0.7
			C55.8,11.4,58.1,15.5,58.1,18.9"/>
	</defs>
	<clipPath id="SVGID_14_">
		<use xlink:href="#SVGID_13_"  style="overflow:visible;"/>
	</clipPath>
	<g class="st6">
		<defs>
			<rect id="SVGID_15_" x="-535.9" y="-297.2" width="1680.1" height="912"/>
		</defs>
		<clipPath id="SVGID_16_">
			<use xlink:href="#SVGID_15_"  style="overflow:visible;"/>
		</clipPath>
		<rect x="42.2" y="5.3" class="st7" width="22" height="24"/>
	</g>
</g>
<g>
	<defs>
		<path id="SVGID_17_" d="M57.2,29.3c0.1,0.3,0.1,0.6-0.2,0.8c-0.5,0.4-1.7,0.2-2.9,0.4c-0.6,0.1-1,0-1.2-0.3
			c-0.2-0.2-0.3-0.9-0.4-1.7c0,0,0-0.1,0-0.1c0,0,0,0,0,0c-0.1-1-0.2-2-0.2-2c0-0.3,0.1-0.4,0.2-0.5c0.3-0.3,0.7-0.3,1.3-0.3
			c0.7,0,2.2-0.1,2.4-0.1c0.3,0,0.5,0.1,0.6,0.4c0.1,0.3,0,0.6-0.3,0.7c-0.2,0.1-2.3,0.1-2.7,0.1c-0.1,0-0.2,0-0.4,0
			c0,0.3,0,0.4,0.1,0.8c0.9,0,2-0.1,2.5-0.2c0.2,0,0.5,0.2,0.5,0.5c0,0.2-0.2,0.5-0.5,0.5c-0.7,0.1-1.6,0.2-2.4,0.2
			c0,0.2,0.1,0.7,0.1,0.8c0.5,0,1.4-0.1,2.7-0.3C56.8,29.1,57,29.1,57.2,29.3"/>
	</defs>
	<clipPath id="SVGID_18_">
		<use xlink:href="#SVGID_17_"  style="overflow:visible;"/>
	</clipPath>
	<g class="st8">
		<defs>
			<rect id="SVGID_19_" x="-535.9" y="-297.2" width="1680.1" height="912"/>
		</defs>
		<clipPath id="SVGID_20_">
			<use xlink:href="#SVGID_19_"  style="overflow:visible;"/>
		</clipPath>
		<rect x="46.3" y="19.4" class="st9" width="17.1" height="17.1"/>
	</g>
</g>
<g>
	<defs>
		<path id="SVGID_21_" d="M51.8,29.8c0,0.5-0.3,0.7-0.4,0.7c-0.5,0.2-1.1-0.2-2-1.1l-0.1-0.1c-0.2-0.2-0.6-0.6-1-1
			c-0.1-0.1-0.3-0.3-0.5-0.5c0,0.7,0.1,1.6,0.2,2.4c0,0.3-0.2,0.6-0.5,0.6c0,0,0,0,0,0c-0.3,0-0.5-0.2-0.5-0.5c0,0-0.1-0.9-0.1-1.8
			c-0.1-1.9-0.1-2.3,0.4-2.4c0.4-0.1,0.6,0,1.9,1.5c0.4,0.4,0.7,0.8,0.9,1l0.1,0.1c0.1,0.1,0.3,0.3,0.5,0.4
			c-0.1-0.9-0.2-2.4-0.3-3.3c0-0.3,0.2-0.6,0.5-0.6c0.3,0,0.6,0.2,0.6,0.5C51.4,25.8,51.7,29.1,51.8,29.8"/>
	</defs>
	<clipPath id="SVGID_22_">
		<use xlink:href="#SVGID_21_"  style="overflow:visible;"/>
	</clipPath>
	<g class="st10">
		<defs>
			<rect id="SVGID_23_" x="-535.9" y="-297.2" width="1680.1" height="912"/>
		</defs>
		<clipPath id="SVGID_24_">
			<use xlink:href="#SVGID_23_"  style="overflow:visible;"/>
		</clipPath>
		<rect x="40.7" y="19.1" class="st11" width="17.2" height="17.9"/>
	</g>
</g>
<g>
	<defs>
		<path id="SVGID_25_" d="M47.9,13.8c0,1.8-8.8,0.8-8.8,2.1c0,0.4,1.9,0.5,3.7,0.6c2.4,0.2,5.1,0.5,5.1,3.3c0,1.2-1,3.4-5,3.4
			c-4.1,0-5.5-2.1-5.5-2.9c0-1.7,1.6-2.2,2.8-2.2c0.1,0,0.1,0,0.2,0c1.2,0,4.4,0.5,4.4,1.3c0,0.5-0.9,0.9-1.9,0.9
			c-1.1,0-2.6-0.9-3.3-0.9c-0.7,0-1.1,0.5-1.1,0.8c0,0.3,0,0.9,2,0.9c1,0,5.7-0.5,5.7-1.8c0-0.6-2.2-1.1-3.9-1.3
			c-0.6-0.1-1.2-0.1-1.8-0.1c-1.8,0-3.6-0.2-3.6-1.8c0-3.2,5.8-3.4,7-3.4C45.2,12.8,47.9,12.8,47.9,13.8"/>
	</defs>
	<clipPath id="SVGID_26_">
		<use xlink:href="#SVGID_25_"  style="overflow:visible;"/>
	</clipPath>
	<g class="st12">
		<defs>
			<rect id="SVGID_27_" x="-535.9" y="-297.2" width="1680.1" height="912"/>
		</defs>
		<clipPath id="SVGID_28_">
			<use xlink:href="#SVGID_27_"  style="overflow:visible;"/>
		</clipPath>
		<rect x="30.5" y="6.7" class="st13" width="23.5" height="22.7"/>
	</g>
</g>
<g>
	<defs>
		<path id="SVGID_29_" d="M45.5,24.8c0.3,0,0.5,0.3,0.5,0.6c0,0.2-0.1,2.3-0.2,3.2c0,0.9,0,1.7-0.5,1.9c-0.2,0.1-0.5,0.1-0.7,0
			c-0.3-0.1-0.6-0.5-1.9-2.2c-0.2-0.2-0.3-0.5-0.5-0.7c0,1.1,0,2.6,0,2.9c0,0.2-0.1,0.6-0.5,0.6c-0.3,0-0.5-0.1-0.6-0.3
			c0,0-0.1-0.2-0.1-2.3c0-2.4,0-2.5,0.4-2.7c0.4-0.2,0.7,0.2,1.1,0.7c0.3,0.3,0.6,0.8,0.9,1.2c0.3,0.4,0.7,1,1.1,1.4
			c0-0.9,0.1-3.5,0.2-3.8C44.9,25,45.2,24.8,45.5,24.8"/>
	</defs>
	<clipPath id="SVGID_30_">
		<use xlink:href="#SVGID_29_"  style="overflow:visible;"/>
	</clipPath>
	<g class="st14">
		<defs>
			<rect id="SVGID_31_" x="-535.9" y="-297.2" width="1680.1" height="912"/>
		</defs>
		<clipPath id="SVGID_32_">
			<use xlink:href="#SVGID_31_"  style="overflow:visible;"/>
		</clipPath>
		<rect x="35.1" y="18.7" class="st15" width="17" height="18.5"/>
	</g>
</g>
<g>
	<defs>
		<path id="SVGID_33_" d="M42.7,6c0,0.6-0.2,1.2-0.7,1.6c-0.5,0.4-1.2,0.6-1.8,0.5c-0.3,0-0.5-0.1-0.8-0.2c-0.7,1.6-3.2,3.2-4.8,3.2
			c-2.8,0-3.5-1.7-3.5-2.6c0-0.9,1-2.4,2.6-3.1c-0.5-0.2-1-0.6-1.2-1.2c-0.2-0.6-0.1-1.3,0.3-1.8c0.7-0.9,2.1-1.1,3.1-0.5
			c0.5,0.3,0.9,0.9,0.9,1.5c0,0.5-0.2,1-0.5,1.3c0.9,0.1,1.5,0.5,1.9,0.9c0,0,0,0,0,0c0-0.3,0.1-0.6,0.2-0.8c0.3-0.6,0.9-0.9,1.6-1
			c0.7-0.1,1.4,0.2,2.1,0.8C42.5,5,42.7,5.5,42.7,6 M34.9,9.6c1.1,0,3.6-1,3.6-2.2c0-0.2-0.1-0.7-0.8-0.7c-1,0-3.1,1.8-4,2.8
			C34,9.5,34.4,9.6,34.9,9.6 M32.5,8.4c0.6-0.8,1.6-1.5,2.5-2.1C33.3,6.7,32.2,7.6,32.5,8.4"/>
	</defs>
	<clipPath id="SVGID_34_">
		<use xlink:href="#SVGID_33_"  style="overflow:visible;"/>
	</clipPath>
	<g class="st16">
		<defs>
			<rect id="SVGID_35_" x="-535.9" y="-297.2" width="1680.1" height="912"/>
		</defs>
		<clipPath id="SVGID_36_">
			<use xlink:href="#SVGID_35_"  style="overflow:visible;"/>
		</clipPath>
		<rect x="25" y="-4.5" class="st17" width="23.8" height="21.7"/>
	</g>
</g>
<g>
	<defs>
		<path id="SVGID_37_" d="M40.7,30c0.1,0.3,0,0.6-0.2,0.7c-0.3,0.1-0.6,0-0.7-0.2c-0.3-0.7-0.7-1.3-1-2c-0.6,0.2-1.3,0.5-1.9,0.7
			c-0.1,0.5-0.2,1-0.4,1.4c-0.1,0.2-0.3,0.4-0.6,0.4c-0.3,0-0.5-0.4-0.5-0.7c0.1-0.3,0.1-0.5,0.2-0.8c-0.2,0-0.4-0.1-0.5-0.3
			c-0.1-0.3,0-0.6,0.3-0.7c0,0,0.2-0.1,0.5-0.2c0.9-3.3,1.2-3.3,1.6-3.3c0.3,0,0.6,0,1.8,2.2c0.2,0,0.4,0.2,0.5,0.4
			c0,0.1,0,0.3-0.1,0.4C40,28.6,40.3,29.2,40.7,30 M38.1,27.5c-0.2-0.4-0.4-0.8-0.6-1c-0.1,0.4-0.3,0.8-0.4,1.4
			C37.5,27.7,37.8,27.6,38.1,27.5"/>
	</defs>
	<clipPath id="SVGID_38_">
		<use xlink:href="#SVGID_37_"  style="overflow:visible;"/>
	</clipPath>
	<g class="st18">
		<defs>
			<rect id="SVGID_39_" x="-535.9" y="-297.2" width="1680.1" height="912"/>
		</defs>
		<clipPath id="SVGID_40_">
			<use xlink:href="#SVGID_39_"  style="overflow:visible;"/>
		</clipPath>
		<rect x="28.9" y="18.9" class="st19" width="17.9" height="18.2"/>
	</g>
</g>
<g>
	<defs>
		<path id="SVGID_41_" d="M36,19.9c0.1,3.2-0.2,3.3-1.1,3.3c-1,0-1.6-0.4-1.5-4.2c0-1.7,0.1-6.2,1.2-6.2
			C35.5,12.8,35.9,13.9,36,19.9"/>
	</defs>
	<clipPath id="SVGID_42_">
		<use xlink:href="#SVGID_41_"  style="overflow:visible;"/>
	</clipPath>
	<g class="st20">
		<defs>
			<rect id="SVGID_43_" x="-535.9" y="-297.2" width="1680.1" height="912"/>
		</defs>
		<clipPath id="SVGID_44_">
			<use xlink:href="#SVGID_43_"  style="overflow:visible;"/>
		</clipPath>
		<rect x="27.3" y="6.7" class="st21" width="14.9" height="22.6"/>
	</g>
</g>
<g>
	<defs>
		<path id="SVGID_45_" d="M34.7,27.4c0,0.3-0.2,0.6-0.7,0.7l0.1,2.3c0,0.3-0.2,0.5-0.5,0.6h0c-0.3,0-0.5-0.2-0.5-0.5l-0.1-2
			c-0.5,0.1-1,0.3-1.6,0.5v1.3c0,0.3-0.2,0.5-0.5,0.5c-0.3,0-0.5-0.2-0.5-0.5v-1c-0.1,0-0.1,0-0.2,0c-0.1,0-0.1,0-0.2,0
			c-0.2,0-0.4-0.1-0.5-0.4c-0.1-0.3,0.1-0.6,0.4-0.7c0.1,0,0.3-0.1,0.5-0.1v-2c0-0.3,0.2-0.5,0.5-0.5c0.3,0,0.5,0.2,0.5,0.5v1.7
			c0.5-0.1,1.1-0.3,1.5-0.4l-0.1-1.7c0-0.3,0.2-0.5,0.5-0.6c0.3,0,0.6,0.2,0.6,0.5l0.1,1.5c0,0,0.1,0,0.1,0
			C34.4,26.9,34.7,27.1,34.7,27.4"/>
	</defs>
	<clipPath id="SVGID_46_">
		<use xlink:href="#SVGID_45_"  style="overflow:visible;"/>
	</clipPath>
	<g class="st22">
		<defs>
			<rect id="SVGID_47_" x="-535.9" y="-297.2" width="1680.1" height="912"/>
		</defs>
		<clipPath id="SVGID_48_">
			<use xlink:href="#SVGID_47_"  style="overflow:visible;"/>
		</clipPath>
		<rect x="23.4" y="18.9" class="st23" width="17.4" height="18.1"/>
	</g>
</g>
<g>
	<defs>
		<path id="SVGID_49_" d="M32.4,16.6c0,4.9-5.4,8.4-12.2,8.5c-1.7,0-3.4-0.2-4.9-0.6c-0.1,0.7-0.4,1.4-1.4,1.4c-1.3,0-1.6-1-1.7-2.5
			c-4.7-2-7.5-5.3-7.5-6.6c0-1.6,3.6-3.2,7.6-3.8c0.1-1.9,0.3-5.3,1.3-5.3c1.1,0,1.4,3.1,1.5,5c7.5,0,9.7,2,9.7,3.8
			c0,1.3-1.5,2.1-1.6,2.1c-0.7-0.1-1.6,0-1.6-0.4c0-0.5,0.9-0.9,0.9-1.4c0-0.6-3.5-1.5-6.2-1.5c-0.3,0-0.7,0-1.1,0
			c0,2.1,0.1,5.4,0.2,7c1.2,0.2,2.4,0.4,3.7,0.4c3.6,0,10.2-1.1,10.1-6.1c0-6.4-12.7-13.9-23.7-13.9C4.2,2.9,1.6,3,1.6,3.4
			c0,0.4,0.7,0.3,0.7,0.7c0,0.3-0.5,0.3-1,0.3C0.8,4.5,0,4.4,0,3.8c0-0.7,0.8-1.6,1.6-2c0.5-0.2,1.3-0.4,2.3-0.5C4.9,1.1,6,1,7.3,1
			C19,0.7,32.3,10.1,32.4,16.6 M12.2,21.6c0-1.7,0-4.3,0-6.1c-3.3,0.2-6.8,0.6-6.8,1.7C5.5,18,8.2,20.3,12.2,21.6"/>
	</defs>
	<clipPath id="SVGID_50_">
		<use xlink:href="#SVGID_49_"  style="overflow:visible;"/>
	</clipPath>
	<g class="st24">
		<defs>
			<rect id="SVGID_51_" x="-535.9" y="-297.2" width="1680.1" height="912"/>
		</defs>
		<clipPath id="SVGID_52_">
			<use xlink:href="#SVGID_51_"  style="overflow:visible;"/>
		</clipPath>
		<rect x="-6.1" y="-5.1" class="st25" width="44.6" height="37.1"/>
	</g>
</g>
<g>
	<defs>
		<path id="SVGID_53_" d="M29.4,29.4c0.1,0.3-0.1,0.6-0.3,0.7c-0.8,0.3-3.7,0.4-4.8,0.4c-0.7,0-1.7-0.4-2-1.1
			c-0.2-0.6,0.1-1.3,0.9-2c1.9-1.6,3-1.8,3.7-1.9c0.9-0.1,1.3,0.5,1.3,0.8c0.1,0.3-0.1,0.6-0.4,0.6c-0.3,0.1-0.5-0.1-0.6-0.4
			c0,0-0.1,0-0.2,0c-0.6,0-1.5,0.3-3.1,1.6c-0.5,0.4-0.6,0.7-0.6,0.8c0.1,0.2,0.5,0.4,0.9,0.4c0.8,0,3.9-0.1,4.5-0.3
			C29,28.9,29.3,29.1,29.4,29.4"/>
	</defs>
	<clipPath id="SVGID_54_">
		<use xlink:href="#SVGID_53_"  style="overflow:visible;"/>
	</clipPath>
	<g class="st26">
		<defs>
			<rect id="SVGID_55_" x="-535.9" y="-297.2" width="1680.1" height="912"/>
		</defs>
		<clipPath id="SVGID_56_">
			<use xlink:href="#SVGID_55_"  style="overflow:visible;"/>
		</clipPath>
		<rect x="16.1" y="19.3" class="st27" width="19.4" height="17.2"/>
	</g>
</g>
</svg>
