<?xml version="1.0" encoding="utf-8"?>
<!-- Generator: Adobe Illustrator 21.0.2, SVG Export Plug-In . SVG Version: 6.00 Build 0)  -->
<svg version="1.1" id="svg2" xmlns="http://www.w3.org/2000/svg" xmlns:xlink="http://www.w3.org/1999/xlink" x="0px" y="0px"
	 viewBox="0 0 135 88" style="enable-background:new 0 0 135 88;" xml:space="preserve">
<style type="text/css">
	.st0{clip-path:url(#SVGID_2_);}
	.st1{clip-path:url(#SVGID_4_);fill:#08EE59;}
	.st2{clip-path:url(#SVGID_6_);}
	.st3{clip-path:url(#SVGID_8_);fill:#08EE59;}
	.st4{clip-path:url(#SVGID_10_);}
	.st5{clip-path:url(#SVGID_12_);enable-background:new    ;}
	.st6{clip-path:url(#SVGID_14_);}
	.st7{clip-path:url(#SVGID_16_);}
	.st8{clip-path:url(#SVGID_18_);fill:#08EE59;}
</style>
<title>Logo_Disney_XD</title>
<g>
	<defs>
		<path id="SVGID_1_" d="M70.4,86.6v-19c0-0.2-0.1-0.5-0.1-0.7c-0.1-0.2-0.3-0.5-0.4-0.6L58,54.3c-0.4-0.4-0.4-1.1,0-1.5l11.8-12
			c0.2-0.2,0.3-0.4,0.4-0.6c0.1-0.2,0.1-0.5,0.1-0.7v-19c0-0.3-0.1-0.5-0.3-0.7c-0.2-0.2-0.5-0.3-0.7-0.3h-18c-0.2,0-0.5,0-0.7,0.1
			c-0.3,0.1-0.5,0.3-0.6,0.4L37.5,32.7c-0.4,0.4-1.1,0.4-1.5,0L23.5,20c-0.2-0.2-0.4-0.3-0.6-0.4c-0.2-0.1-0.5-0.1-0.7-0.1H4.2
			c-0.3,0-0.5,0.1-0.7,0.3c-0.2,0.2-0.3,0.5-0.3,0.7v19c0,0.2,0,0.5,0.1,0.7c0.1,0.3,0.3,0.5,0.4,0.6l11.8,12c0.4,0.4,0.4,1.1,0,1.5
			l-11.8,12c-0.2,0.2-0.3,0.4-0.4,0.6c-0.1,0.2-0.1,0.5-0.1,0.7v19c0,0.3,0.1,0.5,0.3,0.7c0.2,0.2,0.5,0.3,0.7,0.3h18.7
			c0.2,0,0.5-0.1,0.7-0.1c0.2-0.1,0.5-0.3,0.6-0.4l11.8-12c0.4-0.4,1.1-0.4,1.5,0l11.8,12c0.2,0.2,0.4,0.3,0.6,0.4
			c0.2,0.1,0.5,0.1,0.7,0.1h18.7c0.3,0,0.5-0.1,0.7-0.3C70.3,87.1,70.4,86.8,70.4,86.6"/>
	</defs>
	<clipPath id="SVGID_2_">
		<use xlink:href="#SVGID_1_"  style="overflow:visible;"/>
	</clipPath>
	<g class="st0">
		<defs>
			<rect id="SVGID_3_" x="-1476.3" y="-768.3" width="3087.7" height="1676"/>
		</defs>
		<clipPath id="SVGID_4_">
			<use xlink:href="#SVGID_3_"  style="overflow:visible;"/>
		</clipPath>
		<rect x="-8" y="8.2" class="st1" width="89.6" height="90.6"/>
	</g>
</g>
<g>
	<defs>
		<path id="SVGID_5_" d="M119.9,87.6c0.2,0,0.5-0.1,0.7-0.1c0.3-0.1,0.5-0.3,0.6-0.4L134.1,74c0.2-0.2,0.3-0.4,0.4-0.6
			c0.1-0.2,0.1-0.5,0.1-0.8V34.5c0-0.3,0-0.5-0.1-0.8c-0.1-0.2-0.2-0.5-0.4-0.6L121.3,20c-0.2-0.2-0.4-0.3-0.6-0.4
			c-0.2-0.1-0.5-0.1-0.7-0.1H74.8c-0.3,0-0.5,0.1-0.7,0.3c-0.2,0.2-0.3,0.5-0.3,0.7v66.1c0,0.3,0.1,0.5,0.3,0.7
			c0.2,0.2,0.5,0.3,0.7,0.3H119.9z"/>
	</defs>
	<clipPath id="SVGID_6_">
		<use xlink:href="#SVGID_5_"  style="overflow:visible;"/>
	</clipPath>
	<g class="st2">
		<defs>
			<rect id="SVGID_7_" x="-1476.3" y="-768.3" width="3087.7" height="1676"/>
		</defs>
		<clipPath id="SVGID_8_">
			<use xlink:href="#SVGID_7_"  style="overflow:visible;"/>
		</clipPath>
		<rect x="62.5" y="8.2" class="st3" width="83.4" height="90.6"/>
	</g>
</g>
<g>
	<defs>
		<rect id="SVGID_9_" x="0.3" y="0.4" width="48.4" height="20.5"/>
	</defs>
	<clipPath id="SVGID_10_">
		<use xlink:href="#SVGID_9_"  style="overflow:visible;"/>
	</clipPath>
	<g class="st4">
		<defs>
			<rect id="SVGID_11_" x="-1476.3" y="-768.3" width="3087.7" height="1676"/>
		</defs>
		<clipPath id="SVGID_12_">
			<use xlink:href="#SVGID_11_"  style="overflow:visible;"/>
		</clipPath>
		<g class="st5">
			<g>
				<defs>
					<rect id="SVGID_13_" x="0.3" y="0.3" width="49.3" height="21.3"/>
				</defs>
				<clipPath id="SVGID_14_">
					<use xlink:href="#SVGID_13_"  style="overflow:visible;"/>
				</clipPath>
				<g class="st6">
					<defs>
						<path id="SVGID_15_" d="M20,5.1c0,0,0.2-0.3,0.3-0.5c0.3-0.4,0.8-0.9,1.2-1.3c0.1-0.1,0.3-0.2,0.3-0.2s-0.2,0-0.3,0
							c-0.3,0.1-0.7,0.3-0.9,0.5C20.1,4,19.7,4.5,19.9,5C19.9,5,20,5.1,20,5.1 M22,5.6c0.6,0,1.1-0.2,1.6-0.5
							c0.5-0.3,1.2-0.8,1.1-1.4c0-0.2-0.2-0.3-0.3-0.4c-0.2-0.1-0.3-0.1-0.6,0c-0.2,0.1-0.3,0.1-0.5,0.2c-0.6,0.3-1.3,1-1.8,1.5
							c-0.1,0.1-0.2,0.3-0.3,0.4c0,0.1-0.1,0.1-0.1,0.1C21.2,5.7,21.7,5.7,22,5.6 M20.5,6.7c-0.1,0.1-0.1,0.2-0.2,0.3
							c0,0.1-0.1,0.1-0.1,0.2c-0.1,0.1-0.3,0.1-0.4,0c-0.2-0.2-0.3-0.4-0.3-0.7c0-0.1,0-0.2,0-0.3c0-0.2-0.2-0.3-0.3-0.5
							C19.1,5.4,19,5.1,19,4.9c0-0.6,0.3-1.2,0.7-1.7c0.4-0.5,1-0.9,1.7-1.1c0.6-0.3,1.5-0.4,2.1-0.2c0.2,0.1,0.5,0.3,0.7,0.4
							c0,0,0.1,0.1,0.1,0.1c0,0,0.1,0,0.2,0c0.2,0,0.5,0.2,0.6,0.3c0.2,0.2,0.4,0.4,0.4,0.7c0.1,0.6-0.2,1.3-0.6,1.7
							c-0.7,0.7-1.3,1.2-2.2,1.5c-0.4,0.1-1,0.3-1.4,0.2c-0.1,0-0.3,0-0.4-0.1C20.9,6.8,20.6,6.7,20.5,6.7
							C20.6,6.7,20.5,6.7,20.5,6.7 M21.3,8c0,0,0.1,0,0.1,0c0.3,0.1,0.4,0.4,0.5,0.7c0.2,0.7,0.2,2.3,0.3,2.9c0,0.5,0,0.9,0.1,1.4
							c0,0.4,0,0.9,0,1.3c0,0.1-0.1,0.3-0.2,0.4c-0.1,0.1-0.5,0.1-0.6,0.1c-0.4-0.1-0.6-0.4-0.6-0.8c-0.2-1-0.1-3.1,0-3.9
							c0-0.3,0.1-1.2,0.3-1.6C21,8.2,21.1,8,21.3,8 M7.7,9.6c0,0-0.7,0-1.1,0.1C6,9.7,4.9,9.9,4.3,10.1c-0.2,0.1-0.6,0.2-0.6,0.4
							c0,0.2,0.1,0.4,0.2,0.5c0.1,0.1,0.5,0.5,0.7,0.6c0.5,0.4,1.6,1.1,2.4,1.4c0.3,0.1,0.7,0.3,0.7,0.3s0-1.3,0-2.5
							C7.7,10.2,7.7,9.6,7.7,9.6 M19.7,10.1c0,0.3-0.1,1-0.1,1.1c0,0.2-0.2,0.6-0.2,0.7c-0.1,0.3-0.2,0.5-0.4,0.7
							c-0.2,0.4-0.7,1-1,1.3c-1.1,1-2.9,1.5-4.4,1.7c-1,0.1-2.2,0.1-3.3-0.1c-0.4-0.1-0.9-0.2-0.9-0.2s0,0.2,0,0.4
							c0,0.1-0.1,0.3-0.1,0.3c-0.1,0.2-0.2,0.2-0.4,0.3c-0.2,0-0.5,0.1-0.7,0C8,16,7.8,15.7,7.8,15.4c0-0.3-0.1-0.8-0.1-0.8
							s-0.3-0.1-0.5-0.2c-0.7-0.3-1.3-0.7-1.8-1.1c-0.2-0.1-0.8-0.7-0.9-0.8c-0.4-0.4-0.8-0.8-1-1.2c-0.2-0.4-0.3-0.7-0.1-1.1
							c0.2-0.6,1-1,1.6-1.2c0.4-0.2,1.7-0.6,2.2-0.7c0.2,0,0.6-0.1,0.7-0.1c0,0,0,0,0,0c0,0,0-0.6,0-0.8c0-0.2,0.1-1.5,0.2-1.8
							c0-0.1,0.1-0.7,0.3-0.9c0.1-0.1,0.2-0.1,0.3,0C9.1,5,9.3,6.3,9.4,6.9c0,0.4,0,1,0,1s0.7,0,1.1,0c0.4,0,0.9,0.1,1.3,0.1
							c0.5,0.1,1.6,0.3,2.2,0.6c0.5,0.3,1,0.7,1.1,1.1c0.1,0.4,0.1,0.7-0.1,1.1c-0.2,0.4-0.7,0.7-1.2,0.8c-0.1,0-0.7-0.1-0.8-0.2
							c-0.1,0-0.1-0.1,0-0.2c0,0,0.3-0.1,0.4-0.2c0.1,0,0.1-0.1,0.2-0.1c0.1-0.1,0.2-0.2,0.2-0.4c0-0.2-0.2-0.3-0.4-0.4
							c-0.8-0.3-2.5-0.6-3.3-0.6c-0.3,0-0.8,0-0.8,0l0.1,4.4c0,0,0.4,0.1,0.7,0.1c0.2,0,0.9,0.1,1.1,0.1c1.4,0,3-0.1,4.3-0.7
							c0.6-0.3,1.1-0.6,1.5-1.1c0.5-0.6,0.8-1.4,0.7-2.3c-0.1-0.9-0.7-2.1-1.3-2.7c-1.4-1.8-3.8-3.3-5.9-4.1C8.5,2.3,6.3,1.8,4,1.7
							c-0.6,0-1.9,0-2.5,0.2C1.4,1.9,1.3,1.9,1.2,2C1.2,2,1,2,1,2.1c0,0,0,0,0,0s0,0,0.1,0c0.1,0,0.4,0,0.5,0.1
							c0.1,0,0.3,0.1,0.3,0.2C2,2.5,2,2.6,1.9,2.6C1.8,2.8,1.2,2.8,1,2.7c-0.3,0-0.6-0.1-0.6-0.3C0.3,2.1,0.4,1.9,0.5,1.7
							c0.3-0.5,0.7-0.7,1.2-0.9c0.8-0.2,1.8-0.4,2.6-0.4c1.7-0.1,3.3,0.2,5,0.7c0.9,0.3,2.2,0.8,3.1,1.2c0.7,0.3,1.7,0.9,2.3,1.3
							c0.2,0.1,1.2,0.9,1.4,1c0.3,0.3,0.8,0.7,1.1,1C17.8,6.3,18.6,7.2,19,8c0.1,0.2,0.2,0.4,0.3,0.6c0,0.1,0.2,0.5,0.2,0.6
							c0,0.1,0.1,0.3,0.1,0.3C19.6,9.6,19.7,9.9,19.7,10.1 M27.1,10.4C27.1,10.4,27.1,10.4,27.1,10.4c0.6,0.1,1.1,0.2,1.5,0.3
							c0.4,0.2,0.6,0.4,0.8,0.7c0.3,0.5,0.3,1.3,0,1.9c-0.2,0.4-0.6,0.8-1,1c-0.4,0.2-0.8,0.3-1.3,0.3c-0.8,0.1-1.7-0.1-2.5-0.4
							c-0.4-0.2-1-0.6-1.2-1.1c-0.2-0.3-0.2-0.8,0-1.1c0.4-0.5,1.2-0.6,1.8-0.6c0.5,0,1.3,0.2,1.8,0.3c0.1,0,0.6,0.2,0.7,0.3
							c0.1,0.1,0.1,0.1,0.1,0.2c-0.1,0.3-0.9,0.5-1.1,0.5c-0.6,0.1-0.9-0.1-1.6-0.4c-0.2-0.1-0.4-0.1-0.6-0.2
							c-0.3,0-0.7,0.1-0.7,0.4c0,0.2,0.2,0.3,0.3,0.4c0.4,0.2,0.7,0.2,1,0.2c1,0,2.2-0.2,3.1-0.8c0.1-0.1,0.2-0.2,0.2-0.4
							c0,0,0-0.2-0.1-0.2c0,0,0,0,0,0c0,0-0.1-0.1-0.1-0.1c-0.1-0.1-0.3-0.2-0.4-0.2c-0.6-0.2-1.6-0.4-2.2-0.4
							c-0.6,0-1.5-0.1-1.7-0.2c-0.2,0-0.5-0.1-0.7-0.2c-0.2-0.1-0.4-0.3-0.4-0.5c-0.1-0.4,0-0.9,0.2-1.2C23.7,8.4,25,8.1,26,8
							c1-0.1,2.5-0.1,3.5,0.4c0.1,0.1,0.2,0.2,0.2,0.3c-0.1,0.3-0.3,0.5-0.6,0.6c-0.3,0.1-0.9,0.1-1.1,0.1c-1.1,0.1-2.5,0-3.6,0.3
							c-0.1,0-0.2,0.1-0.3,0.1c-0.2,0.2,0.3,0.2,0.4,0.3c0,0,0,0,0.1,0L27.1,10.4 M30.6,14.7c-0.5-0.2-0.6-0.9-0.6-1.3
							c-0.1-1.2,0.3-2.9,0.7-4.1C30.8,9,31,8.4,31.4,8.5c0.3,0,0.4,0.2,0.6,0.4c0.4,0.5,0.8,1.2,1.2,1.7c0.4,0.5,0.7,1.1,1,1.6
							c0,0.1,0.1,0.1,0.1,0.2c0.1,0,0.1,0.1,0.1,0c0,0,0-0.6,0-0.8c0-0.2,0-0.4-0.1-0.5c-0.1-0.5-0.2-1.2-0.3-1.7
							c-0.1-0.5-0.3-1.1-0.4-1.6c0-0.2-0.1-0.3-0.1-0.5c0-0.2,0.1-0.4,0.4-0.3c0.5,0.2,1.1,1.2,1.3,1.5c0.1,0.1,0.3,0.7,0.4,0.9
							c0.2,0.6,0.3,1.1,0.4,1.8c0.1,0.6,0,1.5-0.3,2.1c-0.1,0.2-0.3,0.5-0.5,0.7c-0.3,0.2-0.8,0.4-1.1,0.2c-0.4-0.2-1-1.3-1.1-1.5
							c-0.4-0.6-1-1.9-1.1-2c0,0-0.1-0.1-0.1-0.1c0,0-0.1,0.1-0.1,0.1c-0.1,0.4-0.1,2.1-0.1,2.1c0,0.3,0,1-0.1,1.3
							c-0.1,0.2-0.1,0.4-0.3,0.5C30.9,14.8,30.8,14.7,30.6,14.7 M37,14.6c0,0-0.1-0.1-0.2-0.2c0,0-0.2-0.3-0.2-0.3
							c0-0.1-0.1-0.1-0.1-0.2c-0.2-0.4-0.1-0.8-0.1-1.2c0.1-0.4,0.2-0.4,0.4-0.9c0,0,0-0.1,0-0.1c0-0.1-0.1-0.6-0.1-0.7
							c0-0.2,0.2-0.4,0.5-0.4c0,0,0.1,0,0.1,0c0.1,0,0.2-0.3,0.3-0.5c0.1-0.3,0.2-0.7,0.2-0.7s-0.4-0.1-0.6-0.2
							c-0.2-0.1-0.4-0.2-0.5-0.4c-0.1-0.3,0-0.4,0.2-0.5C37,8.2,37.8,8.1,38,8c0.3,0,0.6-0.1,0.9-0.1c0.3,0,1.4-0.2,1.8-0.2
							c0.6,0,0.9,0.2,1.3,0.7c0.2,0.3,0.3,0.6,0,0.7c-0.4,0.2-1.7,0.3-2,0.3c-0.4,0-0.9,0-0.9,0l-0.3,0.9c0,0,1,0,1.5,0
							c0.1,0,0.3,0,0.3,0c0.3,0.1,0.4,0.3,0.4,0.6c0,0.4-0.1,0.5-0.3,0.6c-0.1,0-1.8,0-2,0.1c-0.1,0-0.3,0-0.3,0s-0.1,0.3-0.2,0.6
							c-0.1,0.3-0.2,0.7-0.2,0.7s0.1,0,0.2,0c0.1,0,0.2,0,0.3,0c0.5-0.1,1.2-0.2,1.9-0.3c0.3-0.1,0.5-0.1,0.7,0.1
							c0.2,0.2,0.2,0.4,0.2,0.6c0,0.2-0.2,0.4-0.4,0.5c-0.6,0.5-1.7,1-2.6,1.1c-0.4,0-0.5,0-0.8-0.1c-0.1,0-0.3-0.1-0.3-0.1
							C37.2,14.7,37.1,14.6,37,14.6 M47.4,10c-0.4,0.4-1,1.1-1.2,1.4c-0.3,0.5-0.7,1.1-1,1.5c-0.1,0.1-0.3,0.4-0.3,0.5
							c0,0,0.2,0,0.4,0c0.4-0.1,1-0.4,1.4-0.6c0.5-0.4,0.8-0.9,1-1.6c0.1-0.3,0.1-0.9-0.1-1.2C47.6,10,47.5,10,47.4,10 M44,15.2
							c0,0-0.1,0.4-0.2,0.7c-0.2,0.5-0.5,2-0.6,2.4c-0.1,0.7-0.5,2.4-0.5,2.4c0,0,0,0.1-0.1,0.1c-0.2,0.1-0.2,0.1-0.4,0
							c-0.2-0.1-0.4-0.3-0.6-0.5c-0.4-0.5-0.3-1.3-0.2-1.9c0.2-1.8,0.5-2.6,1.2-4.4c0,0,0,0,0-0.1c-0.2-0.5-0.3-1-0.3-1.4
							c0-1.4,0.8-2.8,1.7-3.9C44,8.5,44.4,8,44.6,8c0.2,0,0.2,0.2,0.2,0.4c-0.1,0.7-0.6,1.3-0.9,1.9c-0.4,0.6-0.4,0.9-0.6,1.4
							c0,0.1-0.1,0.5-0.1,0.6c0,0.2,0,0.3,0,0.3s0.6-0.8,1-1.3c0.2-0.3,0.4-0.4,0.5-0.6c0.2-0.2,0.8-0.9,1-1.1
							c0.4-0.4,0.6-0.5,1-0.8c0.3-0.2,0.7-0.2,1,0c0.5,0.4,0.8,1.1,0.8,1.7c0.1,0.7-0.1,1.5-0.4,2.2c-0.4,0.7-0.9,1.3-1.6,1.7
							c-0.7,0.5-1.6,0.8-2.4,0.8C44.2,15.2,44,15.2,44,15.2"/>
					</defs>
					<clipPath id="SVGID_16_">
						<use xlink:href="#SVGID_15_"  style="overflow:visible;"/>
					</clipPath>
					<g class="st7">
						<defs>
							<rect id="SVGID_17_" x="0.3" y="0.3" width="49.3" height="21.3"/>
						</defs>
						<clipPath id="SVGID_18_">
							<use xlink:href="#SVGID_17_"  style="overflow:visible;"/>
						</clipPath>
						<rect x="-10.9" y="-10.8" class="st8" width="70.8" height="42.9"/>
					</g>
				</g>
			</g>
		</g>
	</g>
</g>
</svg>
