<?xml version="1.0" encoding="utf-8"?>
<!-- Generator: Adobe Illustrator 21.0.2, SVG Export Plug-In . SVG Version: 6.00 Build 0)  -->
<svg version="1.1" id="Logo" xmlns="http://www.w3.org/2000/svg" xmlns:xlink="http://www.w3.org/1999/xlink" x="0px" y="0px"
	 viewBox="0 0 393.8 78.3" style="enable-background:new 0 0 393.8 78.3;" xml:space="preserve">
<style type="text/css">
	.st0{clip-path:url(#SVGID_2_);}
	.st1{clip-path:url(#SVGID_4_);fill:#EE3F33;}
	.st2{clip-path:url(#SVGID_6_);}
	.st3{clip-path:url(#SVGID_8_);fill:#EE3F33;}
	.st4{clip-path:url(#SVGID_10_);}
	.st5{clip-path:url(#SVGID_12_);fill:#EE3F33;}
	.st6{clip-path:url(#SVGID_14_);}
	.st7{clip-path:url(#SVGID_16_);fill:#EE3F33;}
	.st8{clip-path:url(#SVGID_18_);}
	.st9{clip-path:url(#SVGID_20_);fill:#EE3F33;}
	.st10{clip-path:url(#SVGID_22_);}
	.st11{clip-path:url(#SVGID_24_);fill:#EE3F33;}
	.st12{clip-path:url(#SVGID_26_);}
	.st13{clip-path:url(#SVGID_28_);fill:#EE3F33;}
	.st14{clip-path:url(#SVGID_30_);}
	.st15{clip-path:url(#SVGID_32_);fill:#EE3F33;}
	.st16{clip-path:url(#SVGID_34_);}
	.st17{clip-path:url(#SVGID_36_);fill:#EE3F33;}
</style>
<title>ESPN2</title>
<g>
	<defs>
		<path id="SVGID_1_" d="M314.4,1.1L370,0.9c0,0,12.1-0.6,11.2,9.5l-2.8,29.2c0,0-1.2,8.7-9.3,8.7H336l-1,9.3h41.5l-2.1,20.1h-68.9
			l4.3-36.4c0,0,0.4-10.5,9.7-10.5h32.8l0.7-9.2h-41.1L314.4,1.1"/>
	</defs>
	<clipPath id="SVGID_2_">
		<use xlink:href="#SVGID_1_"  style="overflow:visible;"/>
	</clipPath>
	<g class="st0">
		<defs>
			<rect id="SVGID_3_" x="-3837.6" y="-1463" width="8064.5" height="4377.5"/>
		</defs>
		<clipPath id="SVGID_4_">
			<use xlink:href="#SVGID_3_"  style="overflow:visible;"/>
		</clipPath>
		<rect x="276.3" y="-28.4" class="st1" width="134.1" height="135.4"/>
	</g>
</g>
<g>
	<defs>
		<polyline id="SVGID_5_" points="11.3,1.2 75.7,1.2 73.3,22.7 8.7,22.7 11.3,1.2 		"/>
	</defs>
	<clipPath id="SVGID_6_">
		<use xlink:href="#SVGID_5_"  style="overflow:visible;"/>
	</clipPath>
	<g class="st2">
		<defs>
			<rect id="SVGID_7_" x="-3837.6" y="-1463" width="8064.5" height="4377.5"/>
		</defs>
		<clipPath id="SVGID_8_">
			<use xlink:href="#SVGID_7_"  style="overflow:visible;"/>
		</clipPath>
		<rect x="-20.6" y="-28.1" class="st3" width="125.5" height="80.1"/>
	</g>
</g>
<g>
	<defs>
		<path id="SVGID_9_" d="M98,1.4c12,0,108.2-0.1,115.4,0c7.3,0.1,13,6.1,13.2,13.8c0.1,3.6-0.7,7.6-0.7,7.6L78.5,22.7
			c0,0,0.5-3.7,1-7C80.4,9.7,88.3,1.4,98,1.4"/>
	</defs>
	<clipPath id="SVGID_10_">
		<use xlink:href="#SVGID_9_"  style="overflow:visible;"/>
	</clipPath>
	<g class="st4">
		<defs>
			<rect id="SVGID_11_" x="-3837.6" y="-1463" width="8064.5" height="4377.5"/>
		</defs>
		<clipPath id="SVGID_12_">
			<use xlink:href="#SVGID_11_"  style="overflow:visible;"/>
		</clipPath>
		<rect x="49.2" y="-27.9" class="st5" width="206.7" height="79.9"/>
	</g>
</g>
<g>
	<defs>
		<path id="SVGID_13_" d="M234,1.1c0,0,41.3-0.1,54.6,0c8.6,0,17.3,4.2,16,18.3c-0.4,4.2-0.3,3.4-0.3,3.4l-72.8-0.1L234,1.1"/>
	</defs>
	<clipPath id="SVGID_14_">
		<use xlink:href="#SVGID_13_"  style="overflow:visible;"/>
	</clipPath>
	<g class="st6">
		<defs>
			<rect id="SVGID_15_" x="-3837.6" y="-1463" width="8064.5" height="4377.5"/>
		</defs>
		<clipPath id="SVGID_16_">
			<use xlink:href="#SVGID_15_"  style="overflow:visible;"/>
		</clipPath>
		<rect x="202.2" y="-28.2" class="st7" width="131.8" height="80.3"/>
	</g>
</g>
<g>
	<defs>
		<path id="SVGID_17_" d="M73,77.8l2.4-20.3l47.5,0l0.9-9c0,0-29.9,0.1-34.7-0.1c-6.8-0.3-13.4-5.2-11.6-17.5
			c12.7-0.1,51-0.1,55.3-0.1c8.7,0.1,16,4.9,15.4,17.1c-0.3,5.4-1.6,16.1-3.9,20.2c-6.2,11-15.6,9.5-17.4,9.7
			C125.5,77.8,73,77.8,73,77.8"/>
	</defs>
	<clipPath id="SVGID_18_">
		<use xlink:href="#SVGID_17_"  style="overflow:visible;"/>
	</clipPath>
	<g class="st8">
		<defs>
			<rect id="SVGID_19_" x="-3837.6" y="-1463" width="8064.5" height="4377.5"/>
		</defs>
		<clipPath id="SVGID_20_">
			<use xlink:href="#SVGID_19_"  style="overflow:visible;"/>
		</clipPath>
		<rect x="43.7" y="1.6" class="st9" width="133.8" height="105.5"/>
	</g>
</g>
<g>
	<defs>
		<path id="SVGID_21_" d="M225,31.2c0,0-0.7,4-1.2,6.7c-1.1,5.4-4.3,10.5-11.9,10.5h-33.7l-4.1,29.3h-24.4l5.8-46.6H225"/>
	</defs>
	<clipPath id="SVGID_22_">
		<use xlink:href="#SVGID_21_"  style="overflow:visible;"/>
	</clipPath>
	<g class="st10">
		<defs>
			<rect id="SVGID_23_" x="-3837.6" y="-1463" width="8064.5" height="4377.5"/>
		</defs>
		<clipPath id="SVGID_24_">
			<use xlink:href="#SVGID_23_"  style="overflow:visible;"/>
		</clipPath>
		<rect x="120.5" y="2" class="st11" width="133.8" height="105.1"/>
	</g>
</g>
<g>
	<defs>
		<polyline id="SVGID_25_" points="230.3,31.2 255.5,31.2 249,77.6 224.1,77.6 230.3,31.2 		"/>
	</defs>
	<clipPath id="SVGID_26_">
		<use xlink:href="#SVGID_25_"  style="overflow:visible;"/>
	</clipPath>
	<g class="st12">
		<defs>
			<rect id="SVGID_27_" x="-3837.6" y="-1463" width="8064.5" height="4377.5"/>
		</defs>
		<clipPath id="SVGID_28_">
			<use xlink:href="#SVGID_27_"  style="overflow:visible;"/>
		</clipPath>
		<rect x="194.8" y="2" class="st13" width="89.9" height="104.9"/>
	</g>
</g>
<g>
	<defs>
		<polyline id="SVGID_29_" points="278.6,31.2 303,31.2 297.2,77.8 272.8,77.8 278.6,31.2 		"/>
	</defs>
	<clipPath id="SVGID_30_">
		<use xlink:href="#SVGID_29_"  style="overflow:visible;"/>
	</clipPath>
	<g class="st14">
		<defs>
			<rect id="SVGID_31_" x="-3837.6" y="-1463" width="8064.5" height="4377.5"/>
		</defs>
		<clipPath id="SVGID_32_">
			<use xlink:href="#SVGID_31_"  style="overflow:visible;"/>
		</clipPath>
		<rect x="243.5" y="2" class="st15" width="88.7" height="105.1"/>
	</g>
</g>
<g>
	<defs>
		<polyline id="SVGID_33_" points="7.5,30.9 72.3,30.9 70,48.7 30,48.8 28.8,57.5 68.9,57.5 66.5,77.9 2,77.9 7.5,30.9 		"/>
	</defs>
	<clipPath id="SVGID_34_">
		<use xlink:href="#SVGID_33_"  style="overflow:visible;"/>
	</clipPath>
	<g class="st16">
		<defs>
			<rect id="SVGID_35_" x="-3837.6" y="-1463" width="8064.5" height="4377.5"/>
		</defs>
		<clipPath id="SVGID_36_">
			<use xlink:href="#SVGID_35_"  style="overflow:visible;"/>
		</clipPath>
		<rect x="-27.3" y="1.7" class="st17" width="128.8" height="105.5"/>
	</g>
</g>
</svg>
