<?xml version="1.0" encoding="utf-8"?>
<!-- Generator: Adobe Illustrator 21.0.2, SVG Export Plug-In . SVG Version: 6.00 Build 0)  -->
<svg version="1.1" id="svg2" xmlns="http://www.w3.org/2000/svg" xmlns:xlink="http://www.w3.org/1999/xlink" x="0px" y="0px"
	 viewBox="0 0 157 44" style="enable-background:new 0 0 157 44;" xml:space="preserve">
<style type="text/css">
	.st0{clip-path:url(#SVGID_2_);}
	.st1{clip-path:url(#SVGID_4_);fill:#F17229;}
	.st2{clip-path:url(#SVGID_6_);}
	.st3{clip-path:url(#SVGID_8_);fill:#C7264B;}
	.st4{clip-path:url(#SVGID_10_);}
	.st5{clip-path:url(#SVGID_12_);fill:#1E87C8;}
	.st6{clip-path:url(#SVGID_14_);}
	.st7{clip-path:url(#SVGID_16_);fill:#655EA9;}
	.st8{clip-path:url(#SVGID_18_);}
	.st9{clip-path:url(#SVGID_20_);fill:#10B04B;}
	.st10{clip-path:url(#SVGID_22_);}
	.st11{clip-path:url(#SVGID_24_);enable-background:new    ;}
	.st12{clip-path:url(#SVGID_26_);}
	.st13{clip-path:url(#SVGID_28_);}
	.st14{clip-path:url(#SVGID_30_);fill:#FAB921;}
	.st15{clip-path:url(#SVGID_32_);}
	.st16{clip-path:url(#SVGID_34_);enable-background:new    ;}
	.st17{clip-path:url(#SVGID_36_);}
	.st18{clip-path:url(#SVGID_38_);}
	.st19{clip-path:url(#SVGID_40_);}
</style>
<title>Golf_Channel_2014</title>
<g>
	<defs>
		<path id="SVGID_1_" d="M10.5,14c-1.3,0-2.6,0.5-3.6,1.4c-1.2,1-1.8,2.7-1.7,4.3c0.1,1.2,0.6,2.8,2.6,4.1l14.9,10.3l-7.2-16.5
			C14.6,15.4,12.7,14,10.5,14"/>
	</defs>
	<clipPath id="SVGID_2_">
		<use xlink:href="#SVGID_1_"  style="overflow:visible;"/>
	</clipPath>
	<g class="st0">
		<defs>
			<rect id="SVGID_3_" x="-2487.4" y="-812.2" width="3155" height="1712.6"/>
		</defs>
		<clipPath id="SVGID_4_">
			<use xlink:href="#SVGID_3_"  style="overflow:visible;"/>
		</clipPath>
		<rect x="-6.3" y="2.6" class="st1" width="40.4" height="43.1"/>
	</g>
</g>
<g>
	<defs>
		<path id="SVGID_5_" d="M24.9,9.6c0.5,1,0.9,2.2,0.7,3.4c0,0-2.9,17.4-2.9,17.4l-7.2-16.6c-0.6-2,0-4,1.4-5.4
			c1.4-1.5,3.8-1.9,5.6-1.1C23.4,7.9,24.4,8.7,24.9,9.6"/>
	</defs>
	<clipPath id="SVGID_6_">
		<use xlink:href="#SVGID_5_"  style="overflow:visible;"/>
	</clipPath>
	<g class="st2">
		<defs>
			<rect id="SVGID_7_" x="-2487.4" y="-812.2" width="3155" height="1712.6"/>
		</defs>
		<clipPath id="SVGID_8_">
			<use xlink:href="#SVGID_7_"  style="overflow:visible;"/>
		</clipPath>
		<rect x="3.8" y="-4.4" class="st3" width="33.3" height="46.3"/>
	</g>
</g>
<g>
	<defs>
		<path id="SVGID_9_" d="M42.3,14c1.3,0,2.6,0.5,3.6,1.4c1.2,1,1.8,2.7,1.7,4.3c-0.1,1.2-0.6,2.8-2.6,4.1L30.1,34.2l7.2-16.5
			C38.2,15.4,40.1,14,42.3,14"/>
	</defs>
	<clipPath id="SVGID_10_">
		<use xlink:href="#SVGID_9_"  style="overflow:visible;"/>
	</clipPath>
	<g class="st4">
		<defs>
			<rect id="SVGID_11_" x="-2487.4" y="-812.2" width="3155" height="1712.6"/>
		</defs>
		<clipPath id="SVGID_12_">
			<use xlink:href="#SVGID_11_"  style="overflow:visible;"/>
		</clipPath>
		<rect x="18.6" y="2.6" class="st5" width="40.4" height="43.1"/>
	</g>
</g>
<g>
	<defs>
		<path id="SVGID_13_" d="M29.3,12.4c0.2,0,0.4,0.1,0.5,0.3c-0.9,0.6-2.4,1.2-2.2,2.6l0.2,1.5c0.8,5.1,2.3,13.8,2.3,13.8l7.2-16.6
			c0.6-2,0-4-1.4-5.4c-1.4-1.5-3.8-1.9-5.6-1.1c-1,0.4-1.9,1.2-2.5,2.2c-0.4,0.8-0.7,1.7-0.7,2.7H29.3z"/>
	</defs>
	<clipPath id="SVGID_14_">
		<use xlink:href="#SVGID_13_"  style="overflow:visible;"/>
	</clipPath>
	<g class="st6">
		<defs>
			<rect id="SVGID_15_" x="-2487.4" y="-812.2" width="3155" height="1712.6"/>
		</defs>
		<clipPath id="SVGID_16_">
			<use xlink:href="#SVGID_15_"  style="overflow:visible;"/>
		</clipPath>
		<rect x="15.7" y="-4.4" class="st7" width="33.3" height="46.3"/>
	</g>
</g>
<g>
	<defs>
		<path id="SVGID_17_" d="M46.3,26c2.3,0,4.3,1.7,4.8,3.5c0.5,1.7,0.2,3.5-0.8,4.9c-1,1.3-2.6,2.1-4.3,2.1H29.5L43.1,27
			C44.2,26.3,45.3,26,46.3,26"/>
	</defs>
	<clipPath id="SVGID_18_">
		<use xlink:href="#SVGID_17_"  style="overflow:visible;"/>
	</clipPath>
	<g class="st8">
		<defs>
			<rect id="SVGID_19_" x="-2487.4" y="-812.2" width="3155" height="1712.6"/>
		</defs>
		<clipPath id="SVGID_20_">
			<use xlink:href="#SVGID_19_"  style="overflow:visible;"/>
		</clipPath>
		<rect x="18" y="14.5" class="st9" width="44.8" height="33.4"/>
	</g>
</g>
<g>
	<defs>
		<rect id="SVGID_21_" x="1.4" y="26" width="21.9" height="10.5"/>
	</defs>
	<clipPath id="SVGID_22_">
		<use xlink:href="#SVGID_21_"  style="overflow:visible;"/>
	</clipPath>
	<g class="st10">
		<defs>
			<rect id="SVGID_23_" x="-2487.4" y="-812.2" width="3155" height="1712.6"/>
		</defs>
		<clipPath id="SVGID_24_">
			<use xlink:href="#SVGID_23_"  style="overflow:visible;"/>
		</clipPath>
		<g class="st11">
			<g>
				<defs>
					<rect id="SVGID_25_" x="1.4" y="25.8" width="22.9" height="11.4"/>
				</defs>
				<clipPath id="SVGID_26_">
					<use xlink:href="#SVGID_25_"  style="overflow:visible;"/>
				</clipPath>
				<g class="st12">
					<defs>
						<path id="SVGID_27_" d="M6.4,26c-2.3,0-4.3,1.7-4.8,3.5c-0.5,1.7-0.2,3.5,0.8,4.9c1,1.3,2.6,2.1,4.3,2.1h16.6L9.6,27
							C8.6,26.3,7.5,26,6.4,26"/>
					</defs>
					<clipPath id="SVGID_28_">
						<use xlink:href="#SVGID_27_"  style="overflow:visible;"/>
					</clipPath>
					<g class="st13">
						<defs>
							<rect id="SVGID_29_" x="1.4" y="25.8" width="22.9" height="11.4"/>
						</defs>
						<clipPath id="SVGID_30_">
							<use xlink:href="#SVGID_29_"  style="overflow:visible;"/>
						</clipPath>
						<rect x="-10.1" y="14.5" class="st14" width="44.8" height="33.4"/>
					</g>
				</g>
			</g>
		</g>
	</g>
</g>
<g>
	<defs>
		<rect id="SVGID_31_" x="57" y="5.5" width="99.6" height="32.4"/>
	</defs>
	<clipPath id="SVGID_32_">
		<use xlink:href="#SVGID_31_"  style="overflow:visible;"/>
	</clipPath>
	<g class="st15">
		<defs>
			<rect id="SVGID_33_" x="-2487.4" y="-812.2" width="3155" height="1712.6"/>
		</defs>
		<clipPath id="SVGID_34_">
			<use xlink:href="#SVGID_33_"  style="overflow:visible;"/>
		</clipPath>
		<g class="st16">
			<g>
				<defs>
					<rect id="SVGID_35_" x="56.3" y="5.2" width="100.7" height="33.2"/>
				</defs>
				<clipPath id="SVGID_36_">
					<use xlink:href="#SVGID_35_"  style="overflow:visible;"/>
				</clipPath>
				<g class="st17">
					<defs>
						<path id="SVGID_37_" d="M142.1,11.9H153c0.6,0,1.1-0.3,1.4-0.9l2.2-5.2h-17.3c-2,0-3.7,1.7-3.7,3.7v26.8l-1.7-3.9
							c-0.2-0.4-0.6-0.8-1.3-0.8h-11.4V8c0-1.1-0.9-2.1-2.1-2.1h-4.4v5c1.4,2.9,1.7,5.6,1.8,6.5c-1.9-6.7-8-11.9-15.6-11.9
							c-8.8,0-15,6.6-16,13.9h-8.7c-0.8,0-1.2,0.6-1.3,0.8L72.8,25h9.7c-1,3.5-4.3,7-9.3,7c-5.4,0-9.7-4.5-9.7-10.2
							c0-5.7,4.3-10.2,9.8-10.2c2.2,0,4.8,0.9,7.1,2.6c0.9,0.6,1.7-0.1,1.8-0.4l2.3-4c-1.7-1.5-5.6-4.2-11-4.2
							C64.3,5.5,57,12.6,57,21.7c0,9,7.3,16.2,16.2,16.2c7.5,0,14.2-5.4,15.8-12.8c0,0,0.3,2.9-1.1,6.3c3.1,4.1,7.8,6.5,13,6.5
							c6.6,0,11.4-3.8,13.8-7.8v3.7c0,2.1,1.7,3.7,3.7,3.7H140c1.1,0,2.1-0.9,2.1-2.1V25l9.3,0c0.6,0,1.1-0.3,1.4-0.9l2.1-4.7h-12.7
							V11.9z M100.9,32c-5.3,0-9.6-4.6-9.6-10.2c0-5.6,4.3-10.2,9.6-10.2c5.3,0,9.6,4.6,9.6,10.2C110.5,27.4,106.2,32,100.9,32z"/>
					</defs>
					<clipPath id="SVGID_38_">
						<use xlink:href="#SVGID_37_"  style="overflow:visible;"/>
					</clipPath>
					<g class="st18">
						<defs>
							<rect id="SVGID_39_" x="56.3" y="5.2" width="100.7" height="33.2"/>
						</defs>
						<clipPath id="SVGID_40_">
							<use xlink:href="#SVGID_39_"  style="overflow:visible;"/>
						</clipPath>
						<rect x="45.6" y="-5.9" class="st19" width="122.5" height="55.3"/>
					</g>
				</g>
			</g>
		</g>
	</g>
</g>
</svg>
