<?xml version="1.0" encoding="utf-8"?>
<!-- Generator: Adobe Illustrator 21.0.2, SVG Export Plug-In . SVG Version: 6.00 Build 0)  -->
<svg version="1.1" id="Layer_1" xmlns="http://www.w3.org/2000/svg" xmlns:xlink="http://www.w3.org/1999/xlink" x="0px" y="0px"
	 viewBox="0 0 85 115" style="enable-background:new 0 0 85 115;" xml:space="preserve">
<style type="text/css">
	.st0{clip-path:url(#SVGID_2_);}
	.st1{clip-path:url(#SVGID_4_);fill:#004277;}
	.st2{clip-path:url(#SVGID_6_);}
	.st3{clip-path:url(#SVGID_8_);fill:#004277;}
	.st4{clip-path:url(#SVGID_10_);}
	.st5{clip-path:url(#SVGID_12_);fill:#FFFFFE;}
	.st6{clip-path:url(#SVGID_14_);}
	.st7{clip-path:url(#SVGID_16_);fill:#FFFFFE;}
	.st8{clip-path:url(#SVGID_18_);}
	.st9{clip-path:url(#SVGID_20_);fill:#FFFFFE;}
	.st10{clip-path:url(#SVGID_22_);}
	.st11{clip-path:url(#SVGID_24_);fill:#FFFFFE;}
	.st12{clip-path:url(#SVGID_26_);}
	.st13{clip-path:url(#SVGID_28_);fill:#FFFFFE;}
	.st14{clip-path:url(#SVGID_30_);}
	.st15{clip-path:url(#SVGID_32_);fill:#FFFFFE;}
	.st16{clip-path:url(#SVGID_34_);}
	.st17{clip-path:url(#SVGID_36_);fill:#FFFFFE;}
	.st18{clip-path:url(#SVGID_38_);}
	.st19{clip-path:url(#SVGID_40_);fill:#FFFFFE;}
	.st20{clip-path:url(#SVGID_42_);}
	.st21{clip-path:url(#SVGID_44_);fill:#DDA128;}
	.st22{clip-path:url(#SVGID_46_);}
	.st23{clip-path:url(#SVGID_48_);fill:#DDA128;}
	.st24{clip-path:url(#SVGID_50_);}
	.st25{clip-path:url(#SVGID_52_);fill:#DDA128;}
	.st26{clip-path:url(#SVGID_54_);}
	.st27{clip-path:url(#SVGID_56_);fill:#DDA128;}
	.st28{clip-path:url(#SVGID_58_);}
	.st29{clip-path:url(#SVGID_60_);fill:#DDA128;}
	.st30{clip-path:url(#SVGID_62_);}
	.st31{clip-path:url(#SVGID_64_);fill:#DDA128;}
	.st32{clip-path:url(#SVGID_66_);}
	.st33{clip-path:url(#SVGID_68_);fill:#DDA128;}
	.st34{clip-path:url(#SVGID_70_);}
	.st35{clip-path:url(#SVGID_72_);fill:#DDA128;}
	.st36{clip-path:url(#SVGID_74_);}
	.st37{clip-path:url(#SVGID_76_);fill:#FACB4E;}
	.st38{clip-path:url(#SVGID_78_);}
	.st39{clip-path:url(#SVGID_80_);fill:#FACB4E;}
	.st40{clip-path:url(#SVGID_82_);}
	.st41{clip-path:url(#SVGID_84_);fill:#FACB4E;}
	.st42{clip-path:url(#SVGID_86_);}
	.st43{clip-path:url(#SVGID_88_);fill:#FFFFFE;}
	.st44{clip-path:url(#SVGID_90_);}
	.st45{clip-path:url(#SVGID_92_);fill:#FACB4E;}
	.st46{clip-path:url(#SVGID_94_);}
	.st47{clip-path:url(#SVGID_96_);fill:#FACB4E;}
	.st48{clip-path:url(#SVGID_98_);}
	.st49{clip-path:url(#SVGID_100_);fill:#FACB4E;}
	.st50{clip-path:url(#SVGID_102_);}
	.st51{clip-path:url(#SVGID_104_);fill:#FACB4E;}
	.st52{clip-path:url(#SVGID_106_);}
	.st53{clip-path:url(#SVGID_108_);fill:#FACB4E;}
	.st54{clip-path:url(#SVGID_110_);}
	.st55{clip-path:url(#SVGID_112_);fill:#FACB4E;}
	.st56{clip-path:url(#SVGID_114_);}
	.st57{clip-path:url(#SVGID_116_);fill:#FACB4E;}
	.st58{clip-path:url(#SVGID_118_);}
	.st59{clip-path:url(#SVGID_120_);fill:#FACB4E;}
	.st60{clip-path:url(#SVGID_122_);}
	.st61{clip-path:url(#SVGID_124_);fill:#FFFFFE;}
	.st62{clip-path:url(#SVGID_126_);}
	.st63{clip-path:url(#SVGID_128_);fill:#FFFFFE;}
	.st64{clip-path:url(#SVGID_130_);}
	.st65{clip-path:url(#SVGID_132_);fill:#FFFFFE;}
	.st66{clip-path:url(#SVGID_134_);}
	.st67{clip-path:url(#SVGID_136_);fill:#FFFFFE;}
	.st68{clip-path:url(#SVGID_138_);}
	.st69{clip-path:url(#SVGID_140_);fill:#FFFFFE;}
	.st70{clip-path:url(#SVGID_142_);}
	.st71{clip-path:url(#SVGID_144_);fill:#FFFFFE;}
	.st72{clip-path:url(#SVGID_146_);}
	.st73{clip-path:url(#SVGID_148_);fill:#FFFFFE;}
	.st74{clip-path:url(#SVGID_150_);}
	.st75{clip-path:url(#SVGID_152_);fill:#FFFFFE;}
</style>
<title>SECESPN</title>
<g>
	<g>
		<defs>
			<path id="SVGID_1_" d="M82.2,40.8c0-21.1-17.5-38.2-39.1-38.2C21.6,2.6,4.1,19.7,4.1,40.8c0,8.4,2.7,16.1,7.4,22.4H3.4l0,48.6
				h79.4V63.3h-8C79.5,57,82.2,49.2,82.2,40.8"/>
		</defs>
		<clipPath id="SVGID_2_">
			<use xlink:href="#SVGID_1_"  style="overflow:visible;"/>
		</clipPath>
		<g class="st0">
			<defs>
				<rect id="SVGID_3_" x="-2414.9" y="-453.6" width="2756" height="1496"/>
			</defs>
			<clipPath id="SVGID_4_">
				<use xlink:href="#SVGID_3_"  style="overflow:visible;"/>
			</clipPath>
			<rect x="-6.6" y="-7.4" class="st1" width="99.4" height="129.2"/>
		</g>
	</g>
	<g>
		<defs>
			<path id="SVGID_5_" d="M82.2,40.8c0-21.1-17.5-38.2-39.1-38.2C21.6,2.6,4.1,19.7,4.1,40.8c0,8.4,2.7,16.1,7.4,22.4H3.4l0,48.6
				h79.4V63.3h-8C79.5,57,82.2,49.2,82.2,40.8"/>
		</defs>
		<clipPath id="SVGID_6_">
			<use xlink:href="#SVGID_5_"  style="overflow:visible;"/>
		</clipPath>
		<g class="st2">
			<defs>
				<rect id="SVGID_7_" x="-2414.9" y="-453.6" width="2756" height="1496"/>
			</defs>
			<clipPath id="SVGID_8_">
				<use xlink:href="#SVGID_7_"  style="overflow:visible;"/>
			</clipPath>
			<rect x="-6.6" y="-7.4" class="st3" width="99.4" height="129.2"/>
		</g>
	</g>
	<g>
		<defs>
			<path id="SVGID_9_" d="M69.5,30.9c-1.4-3.6-3.6-7-6.5-9.8c-1.2-1.2-2.5-2.3-3.9-3.2c-0.4-0.3-0.8-0.5-1.2-0.8
				c-1.2-0.8-2.5-1.4-3.8-2v0v0c-0.5-0.2-1-0.4-1.6-0.6l1.6,2.5c1.3,0.6,2.6,1.3,3.8,2.1c0.4,0.3,0.8,0.6,1.2,0.9
				c0.9,0.7,1.8,1.5,2.7,2.3c2.6,2.6,4.7,5.7,6.1,9.2l2.2,0.8C69.9,31.9,69.7,31.4,69.5,30.9"/>
		</defs>
		<clipPath id="SVGID_10_">
			<use xlink:href="#SVGID_9_"  style="overflow:visible;"/>
		</clipPath>
		<g class="st4">
			<defs>
				<rect id="SVGID_11_" x="-2414.9" y="-453.6" width="2756" height="1496"/>
			</defs>
			<clipPath id="SVGID_12_">
				<use xlink:href="#SVGID_11_"  style="overflow:visible;"/>
			</clipPath>
			<rect x="42.5" y="4.5" class="st5" width="37.5" height="37.9"/>
		</g>
	</g>
	<g>
		<defs>
			<path id="SVGID_13_" d="M63.3,46.3c-0.1,0.5-0.3,1-0.5,1.5c-0.8,2.3-2.1,4.5-3.6,6.4V27.8l-1.2-3.2v32.9c0.4-0.4,0.8-0.8,1.2-1.2
				c2.2-2.2,3.9-4.9,4.9-7.9l4,1.6l2.1-0.8L63.3,46.3"/>
		</defs>
		<clipPath id="SVGID_14_">
			<use xlink:href="#SVGID_13_"  style="overflow:visible;"/>
		</clipPath>
		<g class="st6">
			<defs>
				<rect id="SVGID_15_" x="-2414.9" y="-453.6" width="2756" height="1496"/>
			</defs>
			<clipPath id="SVGID_16_">
				<use xlink:href="#SVGID_15_"  style="overflow:visible;"/>
			</clipPath>
			<rect x="47.9" y="14.5" class="st7" width="32.3" height="52.9"/>
		</g>
	</g>
	<g>
		<defs>
			<path id="SVGID_17_" d="M48.8,13.5c-1.8-0.4-3.6-0.6-5.4-0.6c-0.1,0-0.3,0-0.4,0c-0.3,0-0.5,0-0.8,0c-1.3,0-2.6,0.2-3.8,0.4
				c-0.5,0.1-1,0.2-1.6,0.3l1.6,1.5c1.2-0.2,2.5-0.3,3.8-0.4c0.3,0,0.5,0,0.8,0c0.1,0,0.3,0,0.4,0c1.9,0,3.7,0.2,5.4,0.6v4.4
				l1.3,1.8v-7.7C49.7,13.6,49.2,13.5,48.8,13.5"/>
		</defs>
		<clipPath id="SVGID_18_">
			<use xlink:href="#SVGID_17_"  style="overflow:visible;"/>
		</clipPath>
		<g class="st8">
			<defs>
				<rect id="SVGID_19_" x="-2414.9" y="-453.6" width="2756" height="1496"/>
			</defs>
			<clipPath id="SVGID_20_">
				<use xlink:href="#SVGID_19_"  style="overflow:visible;"/>
			</clipPath>
			<rect x="26.7" y="2.9" class="st9" width="33.4" height="28.6"/>
		</g>
	</g>
	<g>
		<defs>
			<path id="SVGID_21_" d="M48.8,60.9c-1.7,0.5-3.5,0.8-5.4,0.8V44.5l-1.2-1.2v19.7c0.3,0,0.5,0,0.8,0c0.1,0,0.3,0,0.4,0
				c1.9,0,3.7-0.3,5.4-0.8v4.4l1.3,1.5v-7.7C49.7,60.6,49.2,60.8,48.8,60.9"/>
		</defs>
		<clipPath id="SVGID_22_">
			<use xlink:href="#SVGID_21_"  style="overflow:visible;"/>
		</clipPath>
		<g class="st10">
			<defs>
				<rect id="SVGID_23_" x="-2414.9" y="-453.6" width="2756" height="1496"/>
			</defs>
			<clipPath id="SVGID_24_">
				<use xlink:href="#SVGID_23_"  style="overflow:visible;"/>
			</clipPath>
			<rect x="32.1" y="33.3" class="st11" width="28" height="44.8"/>
		</g>
	</g>
	<g>
		<defs>
			<polyline id="SVGID_25_" points="43.4,38 43.4,20.2 42.1,18.9 42.1,39.5 48.8,39.5 48.8,43.3 50.1,44.5 50.1,38 43.4,38 			"/>
		</defs>
		<clipPath id="SVGID_26_">
			<use xlink:href="#SVGID_25_"  style="overflow:visible;"/>
		</clipPath>
		<g class="st12">
			<defs>
				<rect id="SVGID_27_" x="-2414.9" y="-453.6" width="2756" height="1496"/>
			</defs>
			<clipPath id="SVGID_28_">
				<use xlink:href="#SVGID_27_"  style="overflow:visible;"/>
			</clipPath>
			<rect x="32.1" y="8.9" class="st13" width="28" height="45.7"/>
		</g>
	</g>
	<g>
		<defs>
			<path id="SVGID_29_" d="M27.4,54.9c-2.1-2.1-3.6-4.7-4.6-7.5c-0.2-0.5-0.3-1-0.5-1.5l-6.9,2.9l2.1,0.8l4-1.6
				c1.2,3.4,3.3,6.5,5.9,8.9c0.5,0.5,1,0.9,1.6,1.3L27.4,54.9"/>
		</defs>
		<clipPath id="SVGID_30_">
			<use xlink:href="#SVGID_29_"  style="overflow:visible;"/>
		</clipPath>
		<g class="st14">
			<defs>
				<rect id="SVGID_31_" x="-2414.9" y="-453.6" width="2756" height="1496"/>
			</defs>
			<clipPath id="SVGID_32_">
				<use xlink:href="#SVGID_31_"  style="overflow:visible;"/>
			</clipPath>
			<rect x="5.3" y="35.9" class="st15" width="33.6" height="32.3"/>
		</g>
	</g>
	<g>
		<defs>
			<polyline id="SVGID_33_" points="23.5,32 21.8,32.4 32.7,44.9 32.7,65.2 34,67.4 34,44 23.5,32 			"/>
		</defs>
		<clipPath id="SVGID_34_">
			<use xlink:href="#SVGID_33_"  style="overflow:visible;"/>
		</clipPath>
		<g class="st16">
			<defs>
				<rect id="SVGID_35_" x="-2414.9" y="-453.6" width="2756" height="1496"/>
			</defs>
			<clipPath id="SVGID_36_">
				<use xlink:href="#SVGID_35_"  style="overflow:visible;"/>
			</clipPath>
			<rect x="11.8" y="22" class="st17" width="32.1" height="55.5"/>
		</g>
	</g>
	<g>
		<defs>
			<path id="SVGID_37_" d="M32.7,14.3c-1.3,0.5-2.6,1.1-3.8,1.7c-0.5,0.3-1,0.6-1.6,0.9c-1.7,1.1-3.4,2.4-4.9,3.9
				c-1.6,1.6-3,3.3-4.2,5.2c-0.3,0.5-0.6,0.9-0.8,1.4c-0.7,1.2-1.2,2.5-1.7,3.8c-0.2,0.4-0.3,0.9-0.4,1.3l1.8,0.2
				c0.4-1.4,1-2.7,1.6-3.9h0c0.2-0.5,0.5-1,0.8-1.4c1.2-2,2.6-3.8,4.2-5.4c1.1-1.1,2.3-2.1,3.6-3c0.5-0.3,1-0.7,1.6-1
				c1.2-0.7,2.5-1.3,3.8-1.9V30l1.2,1.4V13.9C33.6,14,33.2,14.2,32.7,14.3"/>
		</defs>
		<clipPath id="SVGID_38_">
			<use xlink:href="#SVGID_37_"  style="overflow:visible;"/>
		</clipPath>
		<g class="st18">
			<defs>
				<rect id="SVGID_39_" x="-2414.9" y="-453.6" width="2756" height="1496"/>
			</defs>
			<clipPath id="SVGID_40_">
				<use xlink:href="#SVGID_39_"  style="overflow:visible;"/>
			</clipPath>
			<rect x="5.3" y="3.9" class="st19" width="38.6" height="38.9"/>
		</g>
	</g>
	<g>
		<defs>
			<polyline id="SVGID_41_" points="48.8,43.3 42.1,43.3 43.4,44.5 50.1,44.5 48.8,43.3 			"/>
		</defs>
		<clipPath id="SVGID_42_">
			<use xlink:href="#SVGID_41_"  style="overflow:visible;"/>
		</clipPath>
		<g class="st20">
			<defs>
				<rect id="SVGID_43_" x="-2414.9" y="-453.6" width="2756" height="1496"/>
			</defs>
			<clipPath id="SVGID_44_">
				<use xlink:href="#SVGID_43_"  style="overflow:visible;"/>
			</clipPath>
			<rect x="32.1" y="33.3" class="st21" width="28" height="21.2"/>
		</g>
	</g>
	<g>
		<defs>
			<path id="SVGID_45_" d="M48.8,19.6c-1.7-0.5-3.5-0.7-5.4-0.8c-0.1,0-0.3,0-0.4,0c-0.3,0-0.5,0-0.8,0l1.2,1.4
				c1.9,0,3.7,0.3,5.4,0.8c0.5,0.1,0.9,0.3,1.3,0.4L48.8,19.6"/>
		</defs>
		<clipPath id="SVGID_46_">
			<use xlink:href="#SVGID_45_"  style="overflow:visible;"/>
		</clipPath>
		<g class="st22">
			<defs>
				<rect id="SVGID_47_" x="-2414.9" y="-453.6" width="2756" height="1496"/>
			</defs>
			<clipPath id="SVGID_48_">
				<use xlink:href="#SVGID_47_"  style="overflow:visible;"/>
			</clipPath>
			<rect x="32.1" y="8.8" class="st23" width="28" height="22.6"/>
		</g>
	</g>
	<g>
		<defs>
			<path id="SVGID_49_" d="M48.8,66.7c-1.7,0.4-3.6,0.6-5.4,0.6c-0.1,0-0.3,0-0.4,0c-0.3,0-0.5,0-0.8,0c-1.3,0-2.6-0.2-3.8-0.4V15
				l-1.6-1.5v54.9c0.5,0.1,1,0.2,1.6,0.3c1.3,0.2,2.5,0.3,3.8,0.4c0.3,0,0.5,0,0.8,0c0.1,0,0.3,0,0.4,0c1.8,0,3.6-0.2,5.4-0.6
				c0.5-0.1,0.9-0.2,1.3-0.3L48.8,66.7"/>
		</defs>
		<clipPath id="SVGID_50_">
			<use xlink:href="#SVGID_49_"  style="overflow:visible;"/>
		</clipPath>
		<g class="st24">
			<defs>
				<rect id="SVGID_51_" x="-2414.9" y="-453.6" width="2756" height="1496"/>
			</defs>
			<clipPath id="SVGID_52_">
				<use xlink:href="#SVGID_51_"  style="overflow:visible;"/>
			</clipPath>
			<rect x="26.7" y="3.5" class="st25" width="33.4" height="75.5"/>
		</g>
	</g>
	<g>
		<defs>
			<path id="SVGID_53_" d="M67.9,31.6l-4,1.6c-1.1-2.8-2.7-5.4-4.8-7.5c-0.4-0.4-0.8-0.8-1.2-1.2l1.2,3.2c1.5,1.8,2.7,3.8,3.5,6
				c0.2,0.5,0.3,1,0.5,1.5l6.9-2.9L67.9,31.6"/>
		</defs>
		<clipPath id="SVGID_54_">
			<use xlink:href="#SVGID_53_"  style="overflow:visible;"/>
		</clipPath>
		<g class="st26">
			<defs>
				<rect id="SVGID_55_" x="-2414.9" y="-453.6" width="2756" height="1496"/>
			</defs>
			<clipPath id="SVGID_56_">
				<use xlink:href="#SVGID_55_"  style="overflow:visible;"/>
			</clipPath>
			<rect x="47.9" y="14.5" class="st27" width="32.1" height="30.7"/>
		</g>
	</g>
	<g>
		<defs>
			<path id="SVGID_57_" d="M68.1,50c-1.4,3.7-3.5,6.9-6.2,9.6c-0.8,0.8-1.7,1.6-2.7,2.3c-0.4,0.3-0.8,0.6-1.2,0.9
				c-1.2,0.8-2.5,1.5-3.8,2.1V17l-1.6-2.5v52.9c0.5-0.2,1-0.4,1.6-0.6c1.3-0.6,2.6-1.2,3.8-2c0.4-0.3,0.8-0.5,1.2-0.8
				c1.4-1,2.7-2,3.9-3.2c3-2.9,5.2-6.4,6.6-10.2c0.2-0.5,0.4-1,0.5-1.5L68.1,50"/>
		</defs>
		<clipPath id="SVGID_58_">
			<use xlink:href="#SVGID_57_"  style="overflow:visible;"/>
		</clipPath>
		<g class="st28">
			<defs>
				<rect id="SVGID_59_" x="-2414.9" y="-453.6" width="2756" height="1496"/>
			</defs>
			<clipPath id="SVGID_60_">
				<use xlink:href="#SVGID_59_"  style="overflow:visible;"/>
			</clipPath>
			<rect x="42.5" y="4.5" class="st29" width="37.7" height="72.9"/>
		</g>
	</g>
	<g>
		<defs>
			<path id="SVGID_61_" d="M32.7,65.2c-1.3-0.5-2.6-1.1-3.8-1.9v0v0c-0.5-0.3-1-0.6-1.6-1c-1.3-0.9-2.5-1.9-3.6-3
				c-2.8-2.7-4.9-6-6.3-9.7l-2.1-0.8c0.2,0.5,0.3,1,0.5,1.5c1.4,3.8,3.7,7.3,6.7,10.3c1.5,1.5,3.1,2.8,4.9,3.9
				c0.5,0.3,1,0.6,1.6,0.9v0c1.2,0.7,2.5,1.2,3.8,1.7c0.4,0.1,0.8,0.3,1.2,0.4L32.7,65.2"/>
		</defs>
		<clipPath id="SVGID_62_">
			<use xlink:href="#SVGID_61_"  style="overflow:visible;"/>
		</clipPath>
		<g class="st30">
			<defs>
				<rect id="SVGID_63_" x="-2414.9" y="-453.6" width="2756" height="1496"/>
			</defs>
			<clipPath id="SVGID_64_">
				<use xlink:href="#SVGID_63_"  style="overflow:visible;"/>
			</clipPath>
			<rect x="5.3" y="38.8" class="st31" width="38.6" height="38.7"/>
		</g>
	</g>
	<g>
		<defs>
			<polyline id="SVGID_65_" points="17.1,32.8 15.3,32.5 27.4,46.4 27.4,54.9 28.9,58.2 28.9,46.3 17.1,32.8 			"/>
		</defs>
		<clipPath id="SVGID_66_">
			<use xlink:href="#SVGID_65_"  style="overflow:visible;"/>
		</clipPath>
		<g class="st32">
			<defs>
				<rect id="SVGID_67_" x="-2414.9" y="-453.6" width="2756" height="1496"/>
			</defs>
			<clipPath id="SVGID_68_">
				<use xlink:href="#SVGID_67_"  style="overflow:visible;"/>
			</clipPath>
			<rect x="5.3" y="22.5" class="st33" width="33.6" height="45.6"/>
		</g>
	</g>
	<g>
		<defs>
			<path id="SVGID_69_" d="M34,31.4L32.7,30h-3.8v-6.8c-0.5,0.4-1.1,0.8-1.6,1.3c-2,1.8-3.6,4-4.8,6.4c-0.3,0.5-0.5,1-0.7,1.5
				l1.7-0.4c1-2.1,2.3-3.9,3.8-5.6v5H34"/>
		</defs>
		<clipPath id="SVGID_70_">
			<use xlink:href="#SVGID_69_"  style="overflow:visible;"/>
		</clipPath>
		<g class="st34">
			<defs>
				<rect id="SVGID_71_" x="-2414.9" y="-453.6" width="2756" height="1496"/>
			</defs>
			<clipPath id="SVGID_72_">
				<use xlink:href="#SVGID_71_"  style="overflow:visible;"/>
			</clipPath>
			<rect x="11.8" y="13.2" class="st35" width="32.1" height="29.2"/>
		</g>
	</g>
	<g>
		<defs>
			<path id="SVGID_73_" d="M64.1,48.3c-1.1,3-2.8,5.7-4.9,7.9c-0.4,0.4-0.8,0.8-1.2,1.2V24.5c0.4,0.4,0.8,0.8,1.2,1.2
				c2.1,2.1,3.7,4.7,4.8,7.5l4-1.6c-1.4-3.5-3.4-6.6-6.1-9.2c-0.8-0.8-1.7-1.6-2.7-2.3c-0.4-0.3-0.8-0.6-1.2-0.9
				c-1.2-0.8-2.5-1.5-3.8-2.1v47.9c1.3-0.6,2.6-1.3,3.8-2.1c0.4-0.3,0.8-0.6,1.2-0.9c0.9-0.7,1.8-1.5,2.7-2.3c2.7-2.7,4.9-6,6.2-9.6
				L64.1,48.3"/>
		</defs>
		<clipPath id="SVGID_74_">
			<use xlink:href="#SVGID_73_"  style="overflow:visible;"/>
		</clipPath>
		<g class="st36">
			<defs>
				<rect id="SVGID_75_" x="-2414.9" y="-453.6" width="2756" height="1496"/>
			</defs>
			<clipPath id="SVGID_76_">
				<use xlink:href="#SVGID_75_"  style="overflow:visible;"/>
			</clipPath>
			<rect x="44.1" y="7" class="st37" width="34" height="67.9"/>
		</g>
	</g>
	<g>
		<defs>
			<path id="SVGID_77_" d="M42.1,18.9c0.3,0,0.5,0,0.8,0c0.1,0,0.3,0,0.4,0c1.9,0,3.7,0.3,5.4,0.8v-4.4c-1.7-0.4-3.6-0.6-5.4-0.6
				c-0.1,0-0.3,0-0.4,0c-0.3,0-0.5,0-0.8,0c-1.3,0-2.6,0.2-3.8,0.4v51.9c1.2,0.2,2.5,0.3,3.8,0.4c0.3,0,0.5,0,0.8,0
				c0.1,0,0.3,0,0.4,0c1.9,0,3.7-0.2,5.4-0.6v-4.4c-1.7,0.5-3.5,0.7-5.4,0.8c-0.1,0-0.3,0-0.4,0c-0.3,0-0.5,0-0.8,0V43.3h6.6v-3.8
				h-6.6V18.9"/>
		</defs>
		<clipPath id="SVGID_78_">
			<use xlink:href="#SVGID_77_"  style="overflow:visible;"/>
		</clipPath>
		<g class="st38">
			<defs>
				<rect id="SVGID_79_" x="-2414.9" y="-453.6" width="2756" height="1496"/>
			</defs>
			<clipPath id="SVGID_80_">
				<use xlink:href="#SVGID_79_"  style="overflow:visible;"/>
			</clipPath>
			<rect x="28.3" y="4.6" class="st39" width="30.5" height="72.7"/>
		</g>
	</g>
	<g>
		<defs>
			<path id="SVGID_81_" d="M28.9,18L28.9,18L28.9,18c-0.5,0.3-1,0.6-1.6,1c-1.3,0.9-2.5,1.9-3.6,3c-1.6,1.6-3,3.4-4.2,5.4
				c-0.3,0.5-0.6,1-0.8,1.4h0c-0.6,1.3-1.2,2.6-1.6,3.9l11.8,13.6v11.8c-0.5-0.4-1.1-0.8-1.6-1.3c-2.7-2.4-4.7-5.5-5.9-8.9l-4,1.6
				c1.4,3.7,3.5,7,6.3,9.7c1.1,1.1,2.3,2.1,3.6,3c0.5,0.4,1,0.7,1.6,1c1.2,0.7,2.5,1.3,3.8,1.9V44.9L21.8,32.4
				c0.2-0.5,0.5-1,0.7-1.5c1.2-2.4,2.9-4.5,4.8-6.4c0.5-0.5,1-0.9,1.6-1.3V30h3.8V16.2C31.4,16.7,30.1,17.3,28.9,18"/>
		</defs>
		<clipPath id="SVGID_82_">
			<use xlink:href="#SVGID_81_"  style="overflow:visible;"/>
		</clipPath>
		<g class="st40">
			<defs>
				<rect id="SVGID_83_" x="-2414.9" y="-453.6" width="2756" height="1496"/>
			</defs>
			<clipPath id="SVGID_84_">
				<use xlink:href="#SVGID_83_"  style="overflow:visible;"/>
			</clipPath>
			<rect x="7.1" y="6.2" class="st41" width="35.6" height="69"/>
		</g>
	</g>
	<g>
		<defs>
			<path id="SVGID_85_" d="M69.2,65.7c6.3-6.5,10.3-15.3,10.3-25c0-19.8-16.3-35.8-36.4-35.8S6.7,20.9,6.7,40.7
				c0,9.7,3.9,18.5,10.3,25H5.8v43.7h74.5V65.7H69.2z M78.7,108H7.1v-41h13.3l-1.3-1.2C12.3,59.6,8,50.6,8,40.7
				c0-9.5,3.9-18.1,10.2-24.4C24.6,10.1,33.3,6.3,43,6.3c9.6,0,18.4,3.9,24.7,10.1c6.3,6.2,10.2,14.8,10.2,24.4
				c0,9.9-4.2,18.8-11.1,25.1l-1.3,1.2h13.1V108z"/>
		</defs>
		<clipPath id="SVGID_86_">
			<use xlink:href="#SVGID_85_"  style="overflow:visible;"/>
		</clipPath>
		<g class="st42">
			<defs>
				<rect id="SVGID_87_" x="-2414.9" y="-453.6" width="2756" height="1496"/>
			</defs>
			<clipPath id="SVGID_88_">
				<use xlink:href="#SVGID_87_"  style="overflow:visible;"/>
			</clipPath>
			<rect x="-4.2" y="-5.1" class="st43" width="94.5" height="124.5"/>
		</g>
	</g>
	<g>
		<defs>
			<path id="SVGID_89_" d="M21.9,104.7h-1.6l-3-7.7c0.1,0.4,0.1,0.7,0.1,0.9v6.8h-1.8V92.4h1.6l3,7.6c-0.1-0.4-0.1-0.7-0.1-0.9v-6.7
				h1.8V104.7"/>
		</defs>
		<clipPath id="SVGID_90_">
			<use xlink:href="#SVGID_89_"  style="overflow:visible;"/>
		</clipPath>
		<g class="st44">
			<defs>
				<rect id="SVGID_91_" x="-2414.9" y="-453.6" width="2756" height="1496"/>
			</defs>
			<clipPath id="SVGID_92_">
				<use xlink:href="#SVGID_91_"  style="overflow:visible;"/>
			</clipPath>
			<rect x="5.6" y="82.4" class="st45" width="26.3" height="32.3"/>
		</g>
	</g>
	<g>
		<defs>
			<polyline id="SVGID_93_" points="29.1,104.7 23.9,104.7 23.9,92.4 29,92.4 29,94 25.8,94 25.8,97.6 28.6,97.6 28.6,99.2 
				25.8,99.2 25.8,103 29.1,103 29.1,104.7 			"/>
		</defs>
		<clipPath id="SVGID_94_">
			<use xlink:href="#SVGID_93_"  style="overflow:visible;"/>
		</clipPath>
		<g class="st46">
			<defs>
				<rect id="SVGID_95_" x="-2414.9" y="-453.6" width="2756" height="1496"/>
			</defs>
			<clipPath id="SVGID_96_">
				<use xlink:href="#SVGID_95_"  style="overflow:visible;"/>
			</clipPath>
			<rect x="13.9" y="82.4" class="st47" width="25.2" height="32.3"/>
		</g>
	</g>
	<g>
		<defs>
			<polyline id="SVGID_97_" points="36.2,94 34.2,94 34.2,104.7 32.3,104.7 32.3,94 30.3,94 30.3,92.4 36.2,92.4 36.2,94 			"/>
		</defs>
		<clipPath id="SVGID_98_">
			<use xlink:href="#SVGID_97_"  style="overflow:visible;"/>
		</clipPath>
		<g class="st48">
			<defs>
				<rect id="SVGID_99_" x="-2414.9" y="-453.6" width="2756" height="1496"/>
			</defs>
			<clipPath id="SVGID_100_">
				<use xlink:href="#SVGID_99_"  style="overflow:visible;"/>
			</clipPath>
			<rect x="20.3" y="82.4" class="st49" width="26" height="32.3"/>
		</g>
	</g>
	<g>
		<defs>
			<path id="SVGID_101_" d="M46.8,92.4L45,104.7h-1.8l-1.1-7c0-0.3,0-0.6-0.1-1.1c0,0.3,0,0.6-0.1,1.1l-1.1,7H39l-1.8-12.3h1.9
				l1,7.3c0,0.3,0,0.6,0.1,1.1c0-0.3,0-0.6,0.1-1.1l1.1-7.3h1.5l1.1,7.3c0,0.3,0,0.6,0.1,1.1c0-0.3,0-0.6,0.1-1.1l1-7.3H46.8"/>
		</defs>
		<clipPath id="SVGID_102_">
			<use xlink:href="#SVGID_101_"  style="overflow:visible;"/>
		</clipPath>
		<g class="st50">
			<defs>
				<rect id="SVGID_103_" x="-2414.9" y="-453.6" width="2756" height="1496"/>
			</defs>
			<clipPath id="SVGID_104_">
				<use xlink:href="#SVGID_103_"  style="overflow:visible;"/>
			</clipPath>
			<rect x="27.2" y="82.4" class="st51" width="29.6" height="32.3"/>
		</g>
	</g>
	<g>
		<defs>
			<path id="SVGID_105_" d="M54.6,103.5c0,0.7-0.4,1.1-1.1,1.1h-4c-0.7,0-1.1-0.4-1.1-1.1v-10c0-0.8,0.4-1.1,1.1-1.1h4
				c0.8,0,1.1,0.4,1.1,1.1V103.5z M50.2,103.1h2.5V94h-2.5V103.1z"/>
		</defs>
		<clipPath id="SVGID_106_">
			<use xlink:href="#SVGID_105_"  style="overflow:visible;"/>
		</clipPath>
		<g class="st52">
			<defs>
				<rect id="SVGID_107_" x="-2414.9" y="-453.6" width="2756" height="1496"/>
			</defs>
			<clipPath id="SVGID_108_">
				<use xlink:href="#SVGID_107_"  style="overflow:visible;"/>
			</clipPath>
			<rect x="38.4" y="82.4" class="st53" width="26.3" height="32.3"/>
		</g>
	</g>
	<g>
		<defs>
			<polyline id="SVGID_109_" points="70.9,104.7 68.8,104.7 66.5,99.2 66.5,104.7 64.6,104.7 64.6,92.4 66.5,92.4 66.5,97.6 
				68.5,92.4 70.6,92.4 70.6,92.5 68,98.3 70.9,104.7 			"/>
		</defs>
		<clipPath id="SVGID_110_">
			<use xlink:href="#SVGID_109_"  style="overflow:visible;"/>
		</clipPath>
		<g class="st54">
			<defs>
				<rect id="SVGID_111_" x="-2414.9" y="-453.6" width="2756" height="1496"/>
			</defs>
			<clipPath id="SVGID_112_">
				<use xlink:href="#SVGID_111_"  style="overflow:visible;"/>
			</clipPath>
			<rect x="54.6" y="82.4" class="st55" width="26.3" height="32.3"/>
		</g>
	</g>
	<g>
		<defs>
			<rect id="SVGID_113_" x="11.2" y="88.4" width="63.5" height="1.3"/>
		</defs>
		<clipPath id="SVGID_114_">
			<use xlink:href="#SVGID_113_"  style="overflow:visible;"/>
		</clipPath>
		<g class="st56">
			<defs>
				<rect id="SVGID_115_" x="-2414.9" y="-453.6" width="2756" height="1496"/>
			</defs>
			<clipPath id="SVGID_116_">
				<use xlink:href="#SVGID_115_"  style="overflow:visible;"/>
			</clipPath>
			<rect x="1.2" y="78.4" class="st57" width="83.5" height="21.3"/>
		</g>
	</g>
	<g>
		<defs>
			<path id="SVGID_117_" d="M61,104.7H63l-2.1-5.6c0.6,0,1,0,1.2-0.1c0.4-0.1,0.5-0.5,0.5-1v-4.5c0-0.8-0.4-1.1-1.1-1.1h-4.9v12.3
				h1.9V99H59L61,104.7z M58.5,94h2.3v3.9H59v0h-0.5V94z"/>
		</defs>
		<clipPath id="SVGID_118_">
			<use xlink:href="#SVGID_117_"  style="overflow:visible;"/>
		</clipPath>
		<g class="st58">
			<defs>
				<rect id="SVGID_119_" x="-2414.9" y="-453.6" width="2756" height="1496"/>
			</defs>
			<clipPath id="SVGID_120_">
				<use xlink:href="#SVGID_119_"  style="overflow:visible;"/>
			</clipPath>
			<rect x="46.6" y="82.4" class="st59" width="26.4" height="32.3"/>
		</g>
	</g>
	<g>
		<defs>
			<path id="SVGID_121_" d="M53.6,72c0,0-19.3,0-20.4,0c-2.1,0-3.5,1.1-3.7,2.7c-0.1,0.6-0.1,1.1-0.1,1.1h27.2c0,0,0.1-0.4,0.1-0.7
				C56.8,73.5,56.1,72,53.6,72"/>
		</defs>
		<clipPath id="SVGID_122_">
			<use xlink:href="#SVGID_121_"  style="overflow:visible;"/>
		</clipPath>
		<g class="st60">
			<defs>
				<rect id="SVGID_123_" x="-2414.9" y="-453.6" width="2756" height="1496"/>
			</defs>
			<clipPath id="SVGID_124_">
				<use xlink:href="#SVGID_123_"  style="overflow:visible;"/>
			</clipPath>
			<rect x="19.4" y="62" class="st61" width="47.3" height="23.8"/>
		</g>
	</g>
	<g>
		<defs>
			<path id="SVGID_125_" d="M56.4,77.3c0,0-0.1,0.5-0.1,1.1c-0.2,1.2-1,2-2.7,2h-5.8l-0.6,5.2l-4.6,0l1-8.3H56.4"/>
		</defs>
		<clipPath id="SVGID_126_">
			<use xlink:href="#SVGID_125_"  style="overflow:visible;"/>
		</clipPath>
		<g class="st62">
			<defs>
				<rect id="SVGID_127_" x="-2414.9" y="-453.6" width="2756" height="1496"/>
			</defs>
			<clipPath id="SVGID_128_">
				<use xlink:href="#SVGID_127_"  style="overflow:visible;"/>
			</clipPath>
			<rect x="32.5" y="67.3" class="st63" width="33.9" height="28.3"/>
		</g>
	</g>
	<g>
		<defs>
			<polyline id="SVGID_129_" points="28.9,72 28.4,75.8 16.1,75.8 16.6,72 28.9,72 			"/>
		</defs>
		<clipPath id="SVGID_130_">
			<use xlink:href="#SVGID_129_"  style="overflow:visible;"/>
		</clipPath>
		<g class="st64">
			<defs>
				<rect id="SVGID_131_" x="-2414.9" y="-453.6" width="2756" height="1496"/>
			</defs>
			<clipPath id="SVGID_132_">
				<use xlink:href="#SVGID_131_"  style="overflow:visible;"/>
			</clipPath>
			<rect x="6.1" y="62" class="st65" width="32.8" height="23.8"/>
		</g>
	</g>
	<g>
		<defs>
			<polyline id="SVGID_133_" points="16,77.3 28.3,77.3 27.9,80.4 20.2,80.4 20,82 27.7,82 27.2,85.6 14.9,85.6 16,77.3 			"/>
		</defs>
		<clipPath id="SVGID_134_">
			<use xlink:href="#SVGID_133_"  style="overflow:visible;"/>
		</clipPath>
		<g class="st66">
			<defs>
				<rect id="SVGID_135_" x="-2414.9" y="-453.6" width="2756" height="1496"/>
			</defs>
			<clipPath id="SVGID_136_">
				<use xlink:href="#SVGID_135_"  style="overflow:visible;"/>
			</clipPath>
			<rect x="4.9" y="67.3" class="st67" width="33.4" height="28.3"/>
		</g>
	</g>
	<g>
		<defs>
			<path id="SVGID_137_" d="M57.9,72h10c1.6,0,3.2,0.7,2.9,3.2c-0.1,0.5-0.1,0.6-0.1,0.6H57.5L57.9,72"/>
		</defs>
		<clipPath id="SVGID_138_">
			<use xlink:href="#SVGID_137_"  style="overflow:visible;"/>
		</clipPath>
		<g class="st68">
			<defs>
				<rect id="SVGID_139_" x="-2414.9" y="-453.6" width="2756" height="1496"/>
			</defs>
			<clipPath id="SVGID_140_">
				<use xlink:href="#SVGID_139_"  style="overflow:visible;"/>
			</clipPath>
			<rect x="47.5" y="62" class="st69" width="33.5" height="23.8"/>
		</g>
	</g>
	<g>
		<defs>
			<polyline id="SVGID_141_" points="57.3,77.3 61.9,77.3 60.9,85.6 56.2,85.6 57.3,77.3 			"/>
		</defs>
		<clipPath id="SVGID_142_">
			<use xlink:href="#SVGID_141_"  style="overflow:visible;"/>
		</clipPath>
		<g class="st70">
			<defs>
				<rect id="SVGID_143_" x="-2414.9" y="-453.6" width="2756" height="1496"/>
			</defs>
			<clipPath id="SVGID_144_">
				<use xlink:href="#SVGID_143_"  style="overflow:visible;"/>
			</clipPath>
			<rect x="46.2" y="67.3" class="st71" width="25.6" height="28.4"/>
		</g>
	</g>
	<g>
		<defs>
			<polyline id="SVGID_145_" points="66,77.3 70.6,77.3 69.6,85.6 65,85.6 66,77.3 			"/>
		</defs>
		<clipPath id="SVGID_146_">
			<use xlink:href="#SVGID_145_"  style="overflow:visible;"/>
		</clipPath>
		<g class="st72">
			<defs>
				<rect id="SVGID_147_" x="-2414.9" y="-453.6" width="2756" height="1496"/>
			</defs>
			<clipPath id="SVGID_148_">
				<use xlink:href="#SVGID_147_"  style="overflow:visible;"/>
			</clipPath>
			<rect x="55" y="67.3" class="st73" width="25.6" height="28.4"/>
		</g>
	</g>
	<g>
		<defs>
			<path id="SVGID_149_" d="M39.3,77.3c-0.8,0-8.5,0-10.1,0c-0.3,2.2,0.8,3.2,2.3,3.2c0.9,0,6.2,0,6.2,0L37.6,82l-9,0l-0.5,3.6
				c0,0,9.8,0,10.2,0c0.3,0,2.6-0.1,3.4-1.9c0.3-0.6,0.5-2.7,0.5-3.2C42.6,77.9,40.8,77.3,39.3,77.3"/>
		</defs>
		<clipPath id="SVGID_150_">
			<use xlink:href="#SVGID_149_"  style="overflow:visible;"/>
		</clipPath>
		<g class="st74">
			<defs>
				<rect id="SVGID_151_" x="-2414.9" y="-453.6" width="2756" height="1496"/>
			</defs>
			<clipPath id="SVGID_152_">
				<use xlink:href="#SVGID_151_"  style="overflow:visible;"/>
			</clipPath>
			<rect x="18.2" y="67.3" class="st75" width="34.1" height="28.4"/>
		</g>
	</g>
</g>
</svg>
