<?xml version="1.0" encoding="utf-8"?>
<!-- Generator: Adobe Illustrator 21.0.2, SVG Export Plug-In . SVG Version: 6.00 Build 0)  -->
<svg version="1.1" id="svg2" xmlns="http://www.w3.org/2000/svg" xmlns:xlink="http://www.w3.org/1999/xlink" x="0px" y="0px"
	 viewBox="0 0 126 69" style="enable-background:new 0 0 126 69;" xml:space="preserve">
<style type="text/css">
	.st0{clip-path:url(#SVGID_2_);}
	.st1{clip-path:url(#SVGID_4_);fill:#90D500;}
	.st2{clip-path:url(#SVGID_6_);}
	.st3{clip-path:url(#SVGID_8_);enable-background:new    ;}
	.st4{clip-path:url(#SVGID_10_);}
	.st5{clip-path:url(#SVGID_12_);}
	.st6{clip-path:url(#SVGID_14_);fill:#0070D2;}
	.st7{clip-path:url(#SVGID_16_);}
	.st8{clip-path:url(#SVGID_18_);enable-background:new    ;}
	.st9{clip-path:url(#SVGID_20_);}
	.st10{clip-path:url(#SVGID_22_);}
	.st11{clip-path:url(#SVGID_24_);fill:#0070D2;}
	.st12{clip-path:url(#SVGID_26_);}
	.st13{clip-path:url(#SVGID_28_);fill:#0070D2;}
	.st14{clip-path:url(#SVGID_30_);}
	.st15{clip-path:url(#SVGID_32_);fill:#0070D2;}
	.st16{clip-path:url(#SVGID_34_);}
	.st17{clip-path:url(#SVGID_36_);fill:#0070D2;}
	.st18{clip-path:url(#SVGID_38_);}
	.st19{clip-path:url(#SVGID_40_);fill:#0070D2;}
	.st20{clip-path:url(#SVGID_42_);}
	.st21{clip-path:url(#SVGID_44_);fill:#0070D2;}
</style>
<title>PBS_Kids_Sprout_logo</title>
<g>
	<g>
		<defs>
			<path id="SVGID_1_" d="M84.8,24.6c-0.3-1.1-0.9-2-1.7-2.8c1.9,0.6,4.5,0.5,6.1,0.1c2.8-0.7,5.9-3.9,5.2-7.1
				c-0.7-3.2-4.8-3.7-8.7-2.5c-0.1,0-0.2,0.1-0.3,0.1c0.1-0.1,0.1-0.1,0.2-0.2c2.8-3.8,1.6-9.5-1.1-11.1C81.7-0.2,77,4,75.5,7.5
				c-0.2,0.6-0.4,1.1-0.5,1.6c-1.7-2.3-5.2-3.5-7.3-2.8c-2.6,0.9-2.4,5.8-0.9,8.4c0.7,1.2,1.6,2.4,2.5,3.3c-0.5,0.1-0.9,0.2-1.4,0.4
				c-3.4,1.1-5.1,3.9-4.6,6.4c0.5,2.6,5.2,2.8,7.7,2.2c1.4-0.3,2.9-1.4,3.8-2.8c-0.3,1.8,0,3.7,1,5.6c1.8,3.4,5.1,4.5,6.7,3.4
				C84.1,32.2,86,28.8,84.8,24.6"/>
		</defs>
		<clipPath id="SVGID_2_">
			<use xlink:href="#SVGID_1_"  style="overflow:visible;"/>
		</clipPath>
		<g class="st0">
			<defs>
				<rect id="SVGID_3_" x="-1531.1" y="-907" width="2756" height="1496"/>
			</defs>
			<clipPath id="SVGID_4_">
				<use xlink:href="#SVGID_3_"  style="overflow:visible;"/>
			</clipPath>
			<rect x="53.3" y="-9" class="st1" width="51.2" height="52.7"/>
		</g>
	</g>
	<g>
		<defs>
			<rect id="SVGID_5_" x="102.9" y="22.4" width="22.2" height="36.6"/>
		</defs>
		<clipPath id="SVGID_6_">
			<use xlink:href="#SVGID_5_"  style="overflow:visible;"/>
		</clipPath>
		<g class="st2">
			<defs>
				<rect id="SVGID_7_" x="-1531.1" y="-907" width="2756" height="1496"/>
			</defs>
			<clipPath id="SVGID_8_">
				<use xlink:href="#SVGID_7_"  style="overflow:visible;"/>
			</clipPath>
			<g class="st3">
				<g>
					<defs>
						<rect id="SVGID_9_" x="101.9" y="22" width="24" height="38"/>
					</defs>
					<clipPath id="SVGID_10_">
						<use xlink:href="#SVGID_9_"  style="overflow:visible;"/>
					</clipPath>
					<g class="st4">
						<defs>
							<path id="SVGID_11_" d="M111.8,22.4c2.4,0.4,2,2.3,2.8,4.4c0.2,0.5,0.2,1.7,0.7,2c0.6,0.2,1.9-0.3,2.4-0.3
								c2.1-0.2,3.1,0,5.2,0.8c0.5,0.2,0.9,0.3,1.4,0.5c0.4,0.4,0.1,1.1,0.3,1.7c0.1,0.4,0.6,1,0.5,1.5c-0.6,0.4-1.2,0.5-1.9,0.9
								c-1,0.3-1.2,0.2-2.4,0.4c-1.3,0.2-2.3,0.5-4,0.7c0.4,2.5,0.5,4.3,0.8,6.9c0.3,3.6-1.8,9.4-3.1,12.2c-0.9,1.9-2.7,5.8-5.6,4.9
								c-2.1-0.6-3.8-2.4-3-4.8c0.4-0.8,0.8-1.6,1.1-2.4c1-2.6,2-5.6,2.3-8.3c0.1-0.8,0.4-2,0.2-2.8c0-1.3,0-2.5,0-3.8
								c0-0.4,0.1-1.2-0.2-1.3c-0.4-0.2-2.9-0.2-3.3,0c-0.4-0.1-0.7-0.2-1.1-0.3c-0.4,0-1.3-0.6-1-1c-0.1-0.2-0.4-0.1-0.5-0.3
								c-0.1-0.3-0.1-0.6,0-0.8c-0.2-0.1-0.4-0.2-0.6-0.3c0-0.2,0.1-0.3,0.1-0.5c1.5-0.8,2.9-1.6,4.5-2.3c0.4-0.2,1.6-0.2,1.4-0.7
								c0.3-1.4-0.5-4.4,0.2-5.6C109.6,22.8,111,22.8,111.8,22.4"/>
						</defs>
						<clipPath id="SVGID_12_">
							<use xlink:href="#SVGID_11_"  style="overflow:visible;"/>
						</clipPath>
						<g class="st5">
							<defs>
								<rect id="SVGID_13_" x="101.9" y="22" width="24" height="38"/>
							</defs>
							<clipPath id="SVGID_14_">
								<use xlink:href="#SVGID_13_"  style="overflow:visible;"/>
							</clipPath>
							<rect x="92.9" y="12.4" class="st6" width="42.2" height="56.6"/>
						</g>
					</g>
				</g>
			</g>
		</g>
	</g>
	<g>
		<defs>
			<rect id="SVGID_15_" x="0.9" y="28.5" width="22.3" height="29.8"/>
		</defs>
		<clipPath id="SVGID_16_">
			<use xlink:href="#SVGID_15_"  style="overflow:visible;"/>
		</clipPath>
		<g class="st7">
			<defs>
				<rect id="SVGID_17_" x="-1531.1" y="-907" width="2756" height="1496"/>
			</defs>
			<clipPath id="SVGID_18_">
				<use xlink:href="#SVGID_17_"  style="overflow:visible;"/>
			</clipPath>
			<g class="st8">
				<g>
					<defs>
						<rect id="SVGID_19_" x="0.9" y="28" width="23" height="31"/>
					</defs>
					<clipPath id="SVGID_20_">
						<use xlink:href="#SVGID_19_"  style="overflow:visible;"/>
					</clipPath>
					<g class="st9">
						<defs>
							<path id="SVGID_21_" d="M14.9,28.6c2.5-0.1,6.1,0.3,7.4,1.6c0.6,0.6,1.3,1.7,0.6,2.7c-0.6,1-1.9,0.5-3.3,0.8
								c-2.6,0.5-4.6,0.2-6.3,2c-0.3,0.3-0.7,0.6-0.6,1.4c0.3,1.4,2.2,2.1,3.2,2.8c2.4,1.8,6,4.8,5.9,8.6c-0.1,1.6-0.1,2.8-1,3.9
								c-0.6,0.8-1.5,1.3-2.3,1.9c-0.9,0.6-1.8,1.5-2.7,2.1c-1.9,1.3-6.5,2.4-9.1,2.2c-1.5-0.1-4.8-0.3-5.3-1.1
								c0.2-0.5,0.3-1.2,0-1.9c-0.2,0-0.4-0.1-0.5-0.1c-1-6,11.3-4,12.7-8.2c-3.1-2.1-6.8-3.3-8.8-6.5c-0.7-1.1-1.3-3.3-0.8-5
								c0.2-0.7,0.7-1.3,1.1-1.8c0.6-0.9,1.3-1.8,2.2-2.5c1.5-1.1,3.3-1.8,5.5-2.4C13.5,28.7,14.2,28.6,14.9,28.6"/>
						</defs>
						<clipPath id="SVGID_22_">
							<use xlink:href="#SVGID_21_"  style="overflow:visible;"/>
						</clipPath>
						<g class="st10">
							<defs>
								<rect id="SVGID_23_" x="0.9" y="28" width="23" height="31"/>
							</defs>
							<clipPath id="SVGID_24_">
								<use xlink:href="#SVGID_23_"  style="overflow:visible;"/>
							</clipPath>
							<rect x="-9.1" y="18.5" class="st11" width="42.3" height="49.8"/>
						</g>
					</g>
				</g>
			</g>
		</g>
	</g>
	<g>
		<defs>
			<path id="SVGID_25_" d="M59.4,28.7c0.6,0,1.2,0.1,1.8,0.1c0.9,0.3,2.5,1.2,2.9,1.9c0.3,0.6,0.2,1.1,0.5,1.8
				c0.3,0.6,0.7,1.6,0.9,2.3c-1.9,2.9-6.1,0.2-7.9,2.9c-1.6,2.3-1.2,7.5-1.6,10.9c-0.2,1.7,0.4,3.6-0.1,5.1c-0.3,1-2.3,1.6-3.5,1
				c-1-0.6-1.7-3.9-2.3-5.1c-0.6-1.2-0.9-2.7-1.2-4.3c0-0.7-0.1-1.4-0.1-2.1c-1.1-5.7,1.5-10.5,4.9-12.8c1.2-0.8,2.6-1.1,4.2-1.6
				C58.4,28.9,58.9,28.8,59.4,28.7"/>
		</defs>
		<clipPath id="SVGID_26_">
			<use xlink:href="#SVGID_25_"  style="overflow:visible;"/>
		</clipPath>
		<g class="st12">
			<defs>
				<rect id="SVGID_27_" x="-1531.1" y="-907" width="2756" height="1496"/>
			</defs>
			<clipPath id="SVGID_28_">
				<use xlink:href="#SVGID_27_"  style="overflow:visible;"/>
			</clipPath>
			<rect x="38.5" y="18.7" class="st13" width="37" height="46.2"/>
		</g>
	</g>
	<g>
		<defs>
			<path id="SVGID_29_" d="M87.5,35c2.2,0,2.8,1.8,2.6,4.2c-0.3,3.5,0.7,10.2,4.2,11c1.1,0.3,2.1-0.8,2.6-1.3
				c2.1-2.6,0.9-7,0.4-10.4c-0.2-1-0.1-3.1,0.6-3.5c0.2-0.1,0.3-0.1,0.5-0.2c0.7,0.4,0.8,1.3,1.5,1.7c0.5,0.2,1,0.4,1.6,0.6
				c0.3,0.3,0.5,0.5,0.8,0.8c0.3,0.1,0.6-0.1,0.9,0.2c0.1,0.1,0.7,1.3,0.8,1.4c0.6,1.2,0.5,2.3,0.8,3.8c1,5.5-1.9,10.2-6.1,11.9
				c-1.1,0.4-2.6,0.6-3.8,0.7c-4.3,0.6-8.1-3.3-9.8-6.4c-0.9-1.6-1.2-5.7-1.1-7.4c0.1-1.9,0.5-6.1,2.1-7.1
				C86.5,35.1,87.2,35.1,87.5,35"/>
		</defs>
		<clipPath id="SVGID_30_">
			<use xlink:href="#SVGID_29_"  style="overflow:visible;"/>
		</clipPath>
		<g class="st14">
			<defs>
				<rect id="SVGID_31_" x="-1531.1" y="-907" width="2756" height="1496"/>
			</defs>
			<clipPath id="SVGID_32_">
				<use xlink:href="#SVGID_31_"  style="overflow:visible;"/>
			</clipPath>
			<rect x="74" y="24.9" class="st15" width="40.9" height="41.1"/>
		</g>
	</g>
	<g>
		<defs>
			<path id="SVGID_33_" d="M39.5,44.1c-0.7,2.2-1.1,2.8-3.5,3.7c-0.5,0.2-1.4,0.5-2.1,0.4c-2.4-0.4-3.7-3.4-3.3-6.1
				c0.1-0.9,0-1.4,0.4-2.1c0.3-0.5,1.3-1.9,2-2.2c0.6-0.1,1.1-0.2,1.7-0.3c3.4-0.1,3.9,1.1,4.8,3.9C39.6,42.2,39.8,43.3,39.5,44.1
				 M36.4,30.8c-1.6,0.2-3,0.7-3.9,1.1c-2.6,1.2-5.2,3.3-6.6,5.7c-4.6,8.1-1.5,18.5,2.5,25.1c0.8,1.3,1.7,4.1,2.7,5.1
				c0,0,0,0.1,0.1,0.1l0.1,0c-0.1-0.2-0.2-0.5-0.4-0.7c0.4,0.2,0.7,0.5,1.1,0.7c0.6,0.2,0.7,0,1.2,0c2.2,0.3,2.5-0.1,4.1-0.8
				c0.2-2.5-0.9-5.4-1.7-7.5c-0.7-1.9-1.4-3.8-2.1-5.6c2.1,0.6,4.1-0.2,6.3-1c3.7-1.4,5.8-4.1,6.7-7.7
				C48.3,37.8,43.4,30.4,36.4,30.8"/>
		</defs>
		<clipPath id="SVGID_34_">
			<use xlink:href="#SVGID_33_"  style="overflow:visible;"/>
		</clipPath>
		<g class="st16">
			<defs>
				<rect id="SVGID_35_" x="-1531.1" y="-907" width="2756" height="1496"/>
			</defs>
			<clipPath id="SVGID_36_">
				<use xlink:href="#SVGID_35_"  style="overflow:visible;"/>
			</clipPath>
			<rect x="13.6" y="20.8" class="st17" width="43.2" height="57.2"/>
		</g>
	</g>
	<g>
		<defs>
			<path id="SVGID_37_" d="M77,49.7c-0.7,2.2-3.8,4.2-7,3c-3.4-1.3-3.8-6.9-0.9-9c1.1-0.8,2.6-1.2,4.6-1.4
				C76.7,42.5,77.9,46.5,77,49.7 M82.6,46.7c0-0.8-0.3-1.7-0.3-2.5c-0.4-1.3-1-2-1.6-3c-0.2-0.4-0.6-0.9-0.9-1.4
				c-1.4-1.8-4.6-3.9-7.9-3.8c-0.5,0.1-1,0.2-1.5,0.3c-3.6,1.3-7.3,2.6-9.3,5.5c-0.7,1-1.2,2.3-1.5,3.6c-1.2,4.6,0.5,7.7,2.6,10.3
				c0.6,0.8,1.3,1.5,2.2,2c0.4,0.1,0.9,0.5,1.3,0.5c1.1,0.4,2.2,0.6,3.5,0.8c0.6,0.1,1,0.1,1.3,0c0.8,0,1.5-0.1,2.2-0.2
				c0.3-0.1,0.4-0.1,0.6-0.2c1.1-0.3,2.2-0.4,3.1-0.9c0.7-0.4,1.3-0.7,1.9-1.2c0.5-0.4,1.4-0.8,1.8-1.3c0.6-0.9,1-1.8,1.6-2.8
				c0.6-0.9,0.9-2.2,1.2-3.4C82.9,48,82.7,47.3,82.6,46.7"/>
		</defs>
		<clipPath id="SVGID_38_">
			<use xlink:href="#SVGID_37_"  style="overflow:visible;"/>
		</clipPath>
		<g class="st18">
			<defs>
				<rect id="SVGID_39_" x="-1531.1" y="-907" width="2756" height="1496"/>
			</defs>
			<clipPath id="SVGID_40_">
				<use xlink:href="#SVGID_39_"  style="overflow:visible;"/>
			</clipPath>
			<rect x="49.2" y="26" class="st19" width="43.6" height="43.1"/>
		</g>
	</g>
	<g>
		<defs>
			<path id="SVGID_41_" d="M119.4,38.3c-0.8,0-1.4-0.6-1.4-1.4c0-0.8,0.6-1.4,1.4-1.4c0.8,0,1.4,0.6,1.4,1.4
				C120.8,37.7,120.2,38.3,119.4,38.3z M119.4,35.8c-0.7,0-1.1,0.5-1.1,1.1c0,0.6,0.4,1.1,1.1,1.1c0.7,0,1.1-0.5,1.1-1.1
				C120.5,36.3,120.1,35.8,119.4,35.8z M119.7,37l0.3,0.4c0,0,0,0,0,0.1c0,0-0.1,0.1-0.1,0.1c-0.1,0-0.1,0-0.1-0.1l-0.3-0.5h-0.3
				v0.4c0,0-0.1,0.1-0.1,0.1c-0.1,0-0.1-0.1-0.1-0.1v-1.2c0-0.1,0.1-0.1,0.1-0.1h0.4c0.3,0,0.5,0.2,0.5,0.4
				C120,36.8,119.9,36.9,119.7,37z M119.2,36.4v0.4h0.3c0.2,0,0.2-0.1,0.2-0.2c0-0.1-0.1-0.2-0.2-0.2H119.2z"/>
		</defs>
		<clipPath id="SVGID_42_">
			<use xlink:href="#SVGID_41_"  style="overflow:visible;"/>
		</clipPath>
		<g class="st20">
			<defs>
				<rect id="SVGID_43_" x="-1531.1" y="-907" width="2756" height="1496"/>
			</defs>
			<clipPath id="SVGID_44_">
				<use xlink:href="#SVGID_43_"  style="overflow:visible;"/>
			</clipPath>
			<rect x="108" y="25.6" class="st21" width="22.8" height="22.7"/>
		</g>
	</g>
</g>
</svg>
