<?xml version="1.0" encoding="utf-8"?>
<!-- Generator: Adobe Illustrator 21.0.2, SVG Export Plug-In . SVG Version: 6.00 Build 0)  -->
<svg version="1.1" id="Layer_1" xmlns="http://www.w3.org/2000/svg" xmlns:xlink="http://www.w3.org/1999/xlink" x="0px" y="0px"
	 viewBox="0 0 78 41" style="enable-background:new 0 0 78 41;" xml:space="preserve">
<style type="text/css">
	.st0{clip-path:url(#SVGID_2_);}
	.st1{clip-path:url(#SVGID_4_);fill:#532275;}
	.st2{clip-path:url(#SVGID_6_);}
	.st3{clip-path:url(#SVGID_8_);fill:#532275;}
	.st4{clip-path:url(#SVGID_10_);}
	.st5{clip-path:url(#SVGID_12_);fill:#532275;}
	.st6{clip-path:url(#SVGID_14_);}
	.st7{clip-path:url(#SVGID_16_);fill:#532275;}
</style>
<title>syfy</title>
<g>
	<defs>
		<path id="SVGID_1_" d="M55.9,11.4h-6.5v-0.7c0-0.4,0-0.9,0.1-1.3c0.1-0.3,0.1-0.6,0.2-0.8C49.9,8.3,50,8.2,50.4,8
			c0.4-0.2,1.1-0.5,2.5-0.5h4.4v-7h-4.4c-2.1,0-3.9,0.4-5.5,1.1c-1.2,0.6-2.2,1.3-2.9,2.2c-1.1,1.3-1.6,2.7-1.9,4
			c-0.3,1.2-0.3,2.2-0.3,2.9l0,18.9h7.1l0-11.6h6.5V11.4z"/>
	</defs>
	<clipPath id="SVGID_2_">
		<use xlink:href="#SVGID_1_"  style="overflow:visible;"/>
	</clipPath>
	<g class="st0">
		<defs>
			<rect id="SVGID_3_" x="-563.1" y="-445.2" width="1754.7" height="952.5"/>
		</defs>
		<clipPath id="SVGID_4_">
			<use xlink:href="#SVGID_3_"  style="overflow:visible;"/>
		</clipPath>
		<rect x="36" y="-5.9" class="st1" width="27.7" height="41.8"/>
	</g>
</g>
<g>
	<defs>
		<path id="SVGID_5_" d="M66.8,40.5c6.2,0,9.5-4.5,9.5-8.7V11.4h-6.7v8.5v1.7c0,0.5-0.1,1.1-0.6,1.6c-0.5,0.5-1.1,1-2.2,0.9
			c-1.1,0-1.9-0.4-2.3-1c-0.4-0.5-0.5-1.2-0.5-1.6V11.4h-6.8v10.3c0,4.3,3.2,8.7,8.7,8.7c1.1,0,2.1-0.2,3.1-0.6l0.5-0.2l0,0.5l0,1.5
			c0,0.3,0,0.7-0.3,1.3c-0.3,0.6-1.1,1.2-2.3,1.1c-1.1,0-1.8-0.5-2.2-1c-0.4-0.5-0.5-1-0.5-1l-6.8,0l0.1,1.1
			C58.4,36.8,61.8,40.5,66.8,40.5"/>
	</defs>
	<clipPath id="SVGID_6_">
		<use xlink:href="#SVGID_5_"  style="overflow:visible;"/>
	</clipPath>
	<g class="st2">
		<defs>
			<rect id="SVGID_7_" x="-563.1" y="-445.2" width="1754.7" height="952.5"/>
		</defs>
		<clipPath id="SVGID_8_">
			<use xlink:href="#SVGID_7_"  style="overflow:visible;"/>
		</clipPath>
		<rect x="51" y="5" class="st3" width="31.7" height="41.8"/>
	</g>
</g>
<g>
	<defs>
		<path id="SVGID_9_" d="M31.4,40.5c6.2,0,9.5-4.5,9.5-8.7V11.4h-6.7v8.5v1.7c0,0.5,0,1.1-0.6,1.6c-0.5,0.5-1.1,1-2.2,0.9
			c-1.1,0-1.9-0.4-2.3-1c-0.4-0.5-0.5-1.2-0.5-1.6V11.4h-6.8v10.3c0,4.3,3.2,8.7,8.7,8.7c1.1,0,2.1-0.2,3.1-0.6l0.5-0.2v0.5l0,1.5
			c0,0.3,0,0.7-0.3,1.3c-0.3,0.6-1.1,1.2-2.3,1.1c-1.1,0-1.8-0.5-2.2-1c-0.4-0.5-0.5-1-0.5-1L22,32l0.1,1.1
			C23,36.8,26.4,40.5,31.4,40.5"/>
	</defs>
	<clipPath id="SVGID_10_">
		<use xlink:href="#SVGID_9_"  style="overflow:visible;"/>
	</clipPath>
	<g class="st4">
		<defs>
			<rect id="SVGID_11_" x="-563.1" y="-445.2" width="1754.7" height="952.5"/>
		</defs>
		<clipPath id="SVGID_12_">
			<use xlink:href="#SVGID_11_"  style="overflow:visible;"/>
		</clipPath>
		<rect x="15.6" y="5" class="st5" width="31.7" height="41.8"/>
	</g>
</g>
<g>
	<defs>
		<path id="SVGID_13_" d="M1,21c0,0,0-0.6,0-0.9l6.7,0l0,0.4c0,1.2,0.7,2.3,1.4,2.8c0.6,0.5,1.6,0.6,2.1,0.6c1.4,0,2.7-0.9,2.8-2.2
			l0-0.1c0-1-0.7-1.6-1.7-2c-0.9-0.4-2.3-1-3.9-1.8C6.7,17,5,16.1,3.7,15c-2-1.5-2.8-3.5-2.7-6.2c0.1-2.3,1.1-4.3,3-6
			c1.9-1.7,4.3-2.3,6.8-2.3c3.2,0,5.8,1.3,7.6,3.3C20.1,6,20.5,8,20.6,9.6l0,0.3l-6.9,0c-0.1-0.7-0.4-1.5-0.8-2
			c-0.5-0.5-1.2-0.9-2.1-0.9c-0.5,0-1.2,0.2-1.7,0.5C8.5,7.7,8,8.3,8.1,9c0,0.8,0.3,1.3,1.3,1.8c1,0.5,3.9,1.8,4.3,1.9
			c4.2,1.6,6.8,4.2,7.1,8.1c0,0.1,0,0.2,0,0.3c0,1.3-0.4,3.6-1.9,5.6c-1.5,2-4.2,3.7-7.7,3.7C4.3,30.4,1,25.5,1,21"/>
	</defs>
	<clipPath id="SVGID_14_">
		<use xlink:href="#SVGID_13_"  style="overflow:visible;"/>
	</clipPath>
	<g class="st6">
		<defs>
			<rect id="SVGID_15_" x="-563.1" y="-445.2" width="1754.7" height="952.5"/>
		</defs>
		<clipPath id="SVGID_16_">
			<use xlink:href="#SVGID_15_"  style="overflow:visible;"/>
		</clipPath>
		<rect x="-5.4" y="-5.8" class="st7" width="32.6" height="42.6"/>
	</g>
</g>
</svg>
